<?xml version="1.0" standalone="no"?><!-- Generator: Gravit.io --><svg xmlns="http://www.w3.org/2000/svg" xmlns:xlink="http://www.w3.org/1999/xlink" style="isolation:isolate" viewBox="0 0 60 60" width="60" height="60"><defs><clipPath id="_clipPath_5d9koxeoWQVUlPG2Sw05PqzWQJl6FOrt"><rect width="60" height="60"/></clipPath></defs><g clip-path="url(#_clipPath_5d9koxeoWQVUlPG2Sw05PqzWQJl6FOrt)"><g id="Group"><path d=" M 53.707 58.293 L 51 55.586 L 51 20.586 L 50.503 20.089 L 46 15.586 L 46 0 L 6 0 L 6 52 L 11 52 L 11 57 L 49.586 57 L 52.293 59.707 C 52.488 59.902 52.744 60 53 60 C 53.256 60 53.512 59.902 53.707 59.707 C 54.098 59.316 54.098 58.684 53.707 58.293 Z  M 47.586 20 L 36 20 L 36 8.414 L 46 18.414 L 47.586 20 L 47.586 20 Z  M 8 50 L 8 2 L 44 2 L 44 13.586 L 35.911 5.497 L 35.414 5 L 11 5 L 11 50 L 8 50 L 8 50 Z  M 13 55 L 13 52 L 13 7 L 34 7 L 34 22 L 49 22 L 49 53.586 L 41.486 46.072 C 43.226 44.012 44.281 41.355 44.281 38.453 C 44.281 31.931 38.975 26.625 32.453 26.625 C 25.931 26.625 20.625 31.931 20.625 38.453 C 20.625 44.975 25.931 50.281 32.453 50.281 C 35.355 50.281 38.012 49.226 40.072 47.486 L 47.586 55 L 13 55 L 13 55 Z  M 32.453 48.281 C 27.034 48.281 22.625 43.872 22.625 38.453 C 22.625 33.034 27.034 28.625 32.453 28.625 C 37.872 28.625 42.281 33.034 42.281 38.453 C 42.281 43.872 37.872 48.281 32.453 48.281 Z " fill="rgb(33,150,243)"/><path d=" M 26.625 36 L 32.625 36 C 33.178 36 33.625 35.553 33.625 35 C 33.625 34.447 33.178 34 32.625 34 L 26.625 34 C 26.072 34 25.625 34.447 25.625 35 C 25.625 35.553 26.072 36 26.625 36 Z " fill="rgb(33,150,243)"/><path d=" M 38.625 40 L 26.625 40 C 26.072 40 25.625 40.447 25.625 41 C 25.625 41.553 26.072 42 26.625 42 L 38.625 42 C 39.178 42 39.625 41.553 39.625 41 C 39.625 40.447 39.178 40 38.625 40 Z " fill="rgb(33,150,243)"/></g></g></svg>