<?xml version="1.0" standalone="no"?><!-- Generator: Gravit.io --><svg xmlns="http://www.w3.org/2000/svg" xmlns:xlink="http://www.w3.org/1999/xlink" style="isolation:isolate" viewBox="0 0 60 60" width="60" height="60"><defs><clipPath id="_clipPath_rQYlsbUAK16lkbOVt1DedHkMflIHKeWb"><rect width="60" height="60"/></clipPath></defs><g clip-path="url(#_clipPath_rQYlsbUAK16lkbOVt1DedHkMflIHKeWb)"><clipPath id="_clipPath_kAd3RKc2MeL0S5EduUk7m4fLXxhbREFF"><rect x="0" y="0" width="60" height="60" transform="matrix(1,0,0,1,0,0)" fill="rgb(255,255,255)"/></clipPath><g clip-path="url(#_clipPath_kAd3RKc2MeL0S5EduUk7m4fLXxhbREFF)"><g id="Group"><g id="Group"><path d=" M 57.49 27 L 54 27 L 54 20.732 C 54 19.226 52.774 18 51.268 18 L 50 18 L 50 0 L 10 0 L 10 2 L 7 2 L 7 4 L 4 4 L 4 11 L 2.732 11 C 1.226 11 0 12.226 0 13.732 L 0 57.419 L 0.006 57.419 C 0.001 57.982 0.176 58.533 0.528 58.994 C 1.018 59.634 1.76 60 2.565 60 L 47.324 60 C 48.481 60 49.499 59.22 49.773 58.187 L 60 30.149 L 60 29.972 C 60 28.25 58.944 27 57.49 27 Z  M 51.268 20 C 51.672 20 52 20.328 52 20.732 L 52 27 L 50 27 L 50 20 L 51.268 20 L 51.268 20 L 51.268 20 Z  M 48 2 L 48 18 L 48 27 L 12.731 27 C 12.498 27 12.274 27.039 12.057 27.098 C 12.039 27.103 12.018 27.101 12 27.106 L 12 2 L 48 2 L 48 2 L 48 2 Z  M 10 4 L 10 29.585 L 9.937 29.758 L 9 32.326 L 9 4 L 10 4 L 10 4 L 10 4 Z  M 6 6 L 7 6 L 7 37.81 L 6 40.551 L 6 11 L 6 6 L 6 6 L 6 6 Z  M 2 13.732 C 2 13.328 2.329 13 2.732 13 L 4 13 L 4 45.943 L 2 51.398 L 2 13.732 L 2 13.732 L 2 13.732 Z  M 47.868 57.584 C 47.803 57.829 47.579 58 47.324 58 L 2.565 58 C 2.322 58 2.18 57.861 2.117 57.778 C 2.054 57.696 1.957 57.522 1.994 57.37 L 4 51.87 L 4 51.871 L 7 43.646 L 7 43.646 L 10 35.421 L 10 35.424 L 11.932 30.123 L 12 29.938 L 12 29.938 L 12.16 29.499 L 12.186 29.417 C 12.252 29.172 12.477 29 12.731 29 L 48 29 L 50 29 L 54 29 L 57.49 29 C 57.869 29 57.967 29.546 57.991 29.819 L 47.868 57.584 L 47.868 57.584 L 47.868 57.584 Z " fill="rgb(255,255,255)"/><path d=" M 18 17 L 42 17 C 42.552 17 43 16.553 43 16 C 43 15.447 42.552 15 42 15 L 18 15 C 17.448 15 17 15.447 17 16 C 17 16.553 17.448 17 18 17 Z " fill="rgb(255,255,255)"/><path d=" M 18 10 L 28 10 C 28.552 10 29 9.553 29 9 C 29 8.447 28.552 8 28 8 L 18 8 C 17.448 8 17 8.447 17 9 C 17 9.553 17.448 10 18 10 Z " fill="rgb(255,255,255)"/><path d=" M 18 24 L 42 24 C 42.552 24 43 23.553 43 23 C 43 22.447 42.552 22 42 22 L 18 22 C 17.448 22 17 22.447 17 23 C 17 23.553 17.448 24 18 24 Z " fill="rgb(255,255,255)"/></g></g></g></g></svg>