<?xml version="1.0" standalone="no"?><!-- Generator: Gravit.io --><svg xmlns="http://www.w3.org/2000/svg" xmlns:xlink="http://www.w3.org/1999/xlink" style="isolation:isolate" viewBox="0 0 356.321 297.493" width="356.321" height="297.493"><defs><clipPath id="_clipPath_DdQaftCPdIgBC6pU3sNOCTrsJ82ib2ms"><rect width="356.321" height="297.493"/></clipPath></defs><g clip-path="url(#_clipPath_DdQaftCPdIgBC6pU3sNOCTrsJ82ib2ms)"><g id="Group"><g id="Group"><g id="Group"><g id="Group"><path d=" M 259.922 169.558 L 330.716 169.558 C 325.487 169.558 320.732 171.594 317.306 174.985 C 313.867 178.392 311.741 182.403 311.741 187.597 C 311.741 197.969 320.243 205.69 330.717 205.69 L 259.923 205.69 C 265.152 205.69 269.892 204.226 273.332 200.849 C 276.757 197.457 278.883 193.145 278.883 187.952 C 278.882 177.565 270.396 169.558 259.922 169.558 Z " fill="rgb(234,245,254)"/></g><g id="Group"><path d=" M 41.867 151.947 C 41.867 77.526 102.287 17.106 176.708 17.106 C 251.129 17.106 311.549 77.526 311.549 151.947 C 311.549 226.368 251.129 286.788 176.708 286.788 C 102.287 286.788 41.867 226.368 41.867 151.947 Z " fill="rgb(234,245,254)"/></g><g id="Group"><path d=" M 176.707 272.559 C 110.202 272.559 56.096 218.453 56.096 151.947 C 56.096 85.441 110.202 31.336 176.707 31.336 C 243.212 31.336 297.318 85.442 297.318 151.947 C 297.318 218.452 243.213 272.559 176.707 272.559 Z  M 176.707 35.336 C 112.407 35.336 60.096 87.648 60.096 151.947 C 60.096 216.246 112.408 268.559 176.707 268.559 C 241.006 268.559 293.318 216.247 293.318 151.947 C 293.318 87.647 241.007 35.336 176.707 35.336 Z " fill="rgb(214,234,250)"/></g><g id="Group"><path d=" M 68.426 229.983 L 123.769 229.983 C 129.474 229.983 134.099 234.608 134.099 240.313 L 134.099 240.313 C 134.099 246.019 129.474 250.644 123.769 250.644 L 68.426 250.644 C 62.721 250.644 58.096 246.019 58.096 240.313 L 58.096 240.313 C 58.096 234.608 62.721 229.983 68.426 229.983 Z " fill="rgb(234,245,254)"/></g><g id="Group"><path d=" M 57.334 270.712 L 139.334 270.712 C 143.032 270.712 146.029 273.71 146.029 277.407 L 146.029 277.407 C 146.029 281.104 143.032 284.102 139.334 284.102 L 57.334 284.102 C 53.637 284.102 50.639 281.104 50.639 277.407 L 50.639 277.407 C 50.639 273.71 53.637 270.712 57.334 270.712 Z " fill="rgb(234,245,254)"/></g><g id="Group"><path d=" M 236.042 284.102 L 249.347 284.102 C 252.826 284.102 255.646 286.922 255.646 290.401 L 255.646 291.194 C 255.646 294.673 252.826 297.493 249.347 297.493 L 236.042 297.493 C 232.563 297.493 229.743 294.673 229.743 291.194 L 229.743 290.401 C 229.743 286.923 232.564 284.102 236.042 284.102 Z " fill="rgb(234,245,254)"/></g><g id="Group"><path d=" M 171.163 244.495 L 287.671 244.495 C 293.736 244.495 298.653 249.413 298.653 255.477 L 298.653 255.477 C 298.653 261.543 293.736 266.459 287.671 266.459 L 171.163 266.459 C 165.097 266.459 160.181 261.543 160.181 255.477 L 160.181 255.477 C 160.181 249.413 165.098 244.495 171.163 244.495 Z " fill="rgb(234,245,254)"/></g><g id="Group"><path d=" M 80.202 250.493 L 118.761 250.493 C 115.913 250.493 113.323 251.725 111.457 253.591 C 109.583 255.464 108.426 257.677 108.426 260.534 C 108.426 266.239 113.056 270.493 118.761 270.493 L 80.202 270.493 C 83.051 270.493 85.632 269.737 87.506 267.88 C 89.371 266.015 90.529 263.554 90.529 260.698 C 90.529 254.985 85.907 250.493 80.202 250.493 Z " fill="rgb(234,245,254)"/></g><g id="Group"><path d=" M 238.362 132.532 L 337.766 132.532 C 348.014 132.532 356.321 140.84 356.321 151.087 L 356.321 151.087 C 356.321 161.334 348.014 169.642 337.766 169.642 L 238.362 169.642 C 228.114 169.642 219.807 161.334 219.807 151.087 L 219.807 151.087 C 219.808 140.84 228.114 132.532 238.362 132.532 Z " fill="rgb(234,245,254)"/></g><g id="Group"><path d=" M 195.965 205.69 L 343.251 205.69 C 349.893 205.69 355.276 211.074 355.276 217.715 L 355.276 217.715 C 355.276 224.357 349.892 229.74 343.251 229.74 L 195.965 229.74 C 189.323 229.74 183.94 224.356 183.94 217.715 L 183.94 217.715 C 183.94 211.073 189.323 205.69 195.965 205.69 Z " fill="rgb(234,245,254)"/></g><g id="Group"><path d=" M 148.278 116.398 L 31.796 116.398 C 20.916 116.398 12.097 107.579 12.097 96.699 L 12.097 96.699 C 12.097 85.819 20.916 76.999 31.796 76.999 L 148.277 76.999 C 159.157 76.999 167.977 85.819 167.977 96.699 L 167.977 96.699 C 167.978 107.578 159.157 116.398 148.278 116.398 Z " fill="rgb(234,245,254)"/></g><g id="Group"><path d=" M 196.794 227.453 L 28.468 227.453 C 12.746 227.453 0 214.707 0 198.984 L 0 198.984 C 0 183.262 12.746 170.517 28.468 170.517 L 196.794 170.517 C 212.517 170.517 225.262 183.262 225.262 198.984 L 225.262 198.984 C 225.262 214.707 212.517 227.453 196.794 227.453 Z " fill="rgb(234,245,254)"/></g><g id="Group"><path d=" M 292.04 71.492 L 199.108 71.492 C 190.428 71.492 183.391 64.455 183.391 55.775 L 183.391 55.775 C 183.391 47.094 190.428 40.058 199.108 40.058 L 292.04 40.058 C 300.72 40.058 307.757 47.094 307.757 55.775 L 307.757 55.775 C 307.757 64.455 300.72 71.492 292.04 71.492 Z " fill="rgb(234,245,254)"/></g><g id="Group"><path d=" M 263.453 17.107 L 241.385 17.107 C 236.66 17.107 232.831 13.278 232.831 8.553 L 232.831 8.553 C 232.831 3.829 236.66 0 241.385 0 L 263.453 0 C 268.177 0 272.007 3.829 272.007 8.553 L 272.007 8.553 C 272.007 13.278 268.177 17.107 263.453 17.107 Z " fill="rgb(234,245,254)"/></g><g id="Group"><path d=" M 176.107 44.311 L 89.983 44.311 C 82.702 44.311 76.798 38.409 76.798 31.126 L 76.798 31.126 C 76.798 23.845 82.701 17.941 89.983 17.941 L 176.107 17.941 C 183.388 17.941 189.291 23.844 189.291 31.126 L 189.291 31.126 C 189.29 38.408 183.388 44.311 176.107 44.311 Z " fill="rgb(234,245,254)"/></g></g><g id="Group"><g id="Group"><path d=" M 121.777 223.647 L 66.144 223.647 C 63.154 223.647 60.729 221.223 60.729 218.232 L 60.729 152.981 C 60.729 149.991 63.154 147.567 66.144 147.567 L 121.777 147.567 C 124.767 147.567 127.192 149.991 127.192 152.981 L 127.192 218.232 C 127.192 221.223 124.767 223.647 121.777 223.647 Z " fill="rgb(84,170,227)"/></g><g id="Group"><path d=" M 121.777 224.647 L 66.144 224.647 C 62.607 224.647 59.729 221.769 59.729 218.232 L 59.729 152.981 C 59.729 149.444 62.607 146.567 66.144 146.567 L 121.777 146.567 C 125.314 146.567 128.192 149.444 128.192 152.981 L 128.192 218.232 C 128.192 221.769 125.314 224.647 121.777 224.647 Z  M 66.144 148.567 C 63.709 148.567 61.729 150.547 61.729 152.981 L 61.729 218.232 C 61.729 220.667 63.709 222.647 66.144 222.647 L 121.777 222.647 C 124.212 222.647 126.192 220.667 126.192 218.232 L 126.192 152.981 C 126.192 150.547 124.212 148.567 121.777 148.567 L 66.144 148.567 L 66.144 148.567 Z " fill="rgb(0,114,205)"/></g><g id="Group"><rect x="67.029" y="154.492" width="53" height="62" transform="matrix(1,0,0,1,0,0)" fill="rgb(255,255,255)"/></g><g id="Group"><path d=" M 120.029 217.492 L 67.029 217.492 C 66.477 217.492 66.029 217.044 66.029 216.492 L 66.029 154.492 C 66.029 153.94 66.477 153.492 67.029 153.492 L 120.029 153.492 C 120.581 153.492 121.029 153.94 121.029 154.492 L 121.029 216.492 C 121.029 217.045 120.581 217.492 120.029 217.492 Z  M 68.029 215.492 L 119.029 215.492 L 119.029 155.492 L 68.029 155.492 L 68.029 215.492 L 68.029 215.492 Z " fill="rgb(0,114,205)"/></g><g id="Group"><rect x="89.029" y="219.492" width="9" height="2" transform="matrix(1,0,0,1,0,0)" fill="rgb(0,114,205)"/></g><g id="Group"><rect x="67.029" y="173.492" width="53" height="2" transform="matrix(1,0,0,1,0,0)" fill="rgb(0,114,205)"/></g><g id="Group"><rect x="67.029" y="196.492" width="53" height="2" transform="matrix(1,0,0,1,0,0)" fill="rgb(0,114,205)"/></g><g id="Group"><g id="Group"><path d=" M 78.993 175.598 L 71.161 175.598 L 71.161 159.295 L 78.993 159.295 L 78.993 175.598 Z  M 73.161 173.598 L 76.993 173.598 L 76.993 161.295 L 73.161 161.295 L 73.161 173.598 Z " fill="rgb(0,114,205)"/></g><g id="Group"><path d=" M 95.654 175.598 L 87.822 175.598 L 87.822 159.295 L 95.654 159.295 L 95.654 175.598 Z  M 89.822 173.598 L 93.654 173.598 L 93.654 161.295 L 89.822 161.295 L 89.822 173.598 Z " fill="rgb(0,114,205)"/></g><g id="Group"><path d=" M 101.487 175.598 L 93.655 175.598 L 93.655 159.295 L 101.487 159.295 L 101.487 175.598 Z  M 95.654 173.598 L 99.486 173.598 L 99.486 161.295 L 95.654 161.295 L 95.654 173.598 Z " fill="rgb(0,114,205)"/></g><g id="Group"><path d=" M 109.466 175.278 L 102.989 170.874 L 112.155 157.392 L 118.632 161.796 L 109.466 175.278 Z  M 105.767 170.345 L 108.936 172.5 L 115.853 162.326 L 112.684 160.171 L 105.767 170.345 Z " fill="rgb(0,114,205)"/></g><g id="Group"><path d=" M 83.174 175.232 L 78.868 159.508 L 84.949 157.842 L 89.255 173.566 L 83.174 175.232 Z  M 81.325 160.908 L 84.574 172.774 L 86.798 172.165 L 83.549 160.299 L 81.325 160.908 Z " fill="rgb(0,114,205)"/></g></g><g id="Group"><g id="Group"><path d=" M 118.242 197.423 L 110.41 197.423 L 110.41 181.12 L 118.242 181.12 L 118.242 197.423 Z  M 112.41 195.423 L 116.242 195.423 L 116.242 183.12 L 112.41 183.12 L 112.41 195.423 Z " fill="rgb(0,114,205)"/></g><g id="Group"><path d=" M 101.581 197.423 L 93.749 197.423 L 93.749 181.12 L 101.581 181.12 L 101.581 197.423 Z  M 95.749 195.423 L 99.581 195.423 L 99.581 183.12 L 95.749 183.12 L 95.749 195.423 Z " fill="rgb(0,114,205)"/></g><g id="Group"><path d=" M 95.749 197.423 L 87.917 197.423 L 87.917 181.12 L 95.749 181.12 L 95.749 197.423 Z  M 89.917 195.423 L 93.749 195.423 L 93.749 183.12 L 89.917 183.12 L 89.917 195.423 Z " fill="rgb(0,114,205)"/></g><g id="Group"><path d=" M 77.249 198.215 L 70.772 193.811 L 79.938 180.33 L 86.415 184.733 L 77.249 198.215 Z  M 73.55 193.281 L 76.719 195.436 L 83.636 185.262 L 80.467 183.108 L 73.55 193.281 Z " fill="rgb(0,114,205)"/></g><g id="Group"><path d=" M 104.454 198.875 L 100.148 183.151 L 106.23 181.486 L 110.536 197.21 L 104.454 198.875 Z  M 102.606 184.552 L 105.855 196.418 L 108.08 195.809 L 104.831 183.943 L 102.606 184.552 Z " fill="rgb(0,114,205)"/></g></g><g id="Group"><g id="Group"><path d=" M 78.993 216.586 L 71.161 216.586 L 71.161 200.283 L 78.993 200.283 L 78.993 216.586 Z  M 73.161 214.586 L 76.993 214.586 L 76.993 202.283 L 73.161 202.283 L 73.161 214.586 Z " fill="rgb(0,114,205)"/></g><g id="Group"><path d=" M 95.654 216.586 L 87.822 216.586 L 87.822 200.283 L 95.654 200.283 L 95.654 216.586 Z  M 89.822 214.586 L 93.654 214.586 L 93.654 202.283 L 89.822 202.283 L 89.822 214.586 Z " fill="rgb(0,114,205)"/></g><g id="Group"><path d=" M 101.487 216.586 L 93.655 216.586 L 93.655 200.283 L 101.487 200.283 L 101.487 216.586 Z  M 95.654 214.586 L 99.486 214.586 L 99.486 202.283 L 95.654 202.283 L 95.654 214.586 Z " fill="rgb(0,114,205)"/></g><g id="Group"><path d=" M 112.154 217.378 L 102.988 203.896 L 109.465 199.493 L 118.631 212.974 L 112.154 217.378 Z  M 105.767 204.425 L 112.684 214.599 L 115.853 212.444 L 108.936 202.271 L 105.767 204.425 Z " fill="rgb(0,114,205)"/></g><g id="Group"><path d=" M 84.949 218.038 L 78.868 216.373 L 83.174 200.649 L 89.255 202.315 L 84.949 218.038 Z  M 81.325 214.972 L 83.549 215.581 L 86.798 203.716 L 84.574 203.107 L 81.325 214.972 Z " fill="rgb(0,114,205)"/></g></g></g><g id="Group"><g id="Group"><rect x="255" y="158.323" width="50.47" height="65.323" transform="matrix(1,0,0,1,0,0)" fill="rgb(146,208,239)"/></g><g id="Group"><rect x="204.296" y="158.323" width="50.704" height="65.323" transform="matrix(1,0,0,1,0,0)" fill="rgb(146,208,239)"/></g><g id="Group"><rect x="255" y="161.947" width="44.869" height="58.074" transform="matrix(1,0,0,1,0,0)" fill="rgb(255,255,255)"/></g><g id="Group"><path d=" M 299.869 221.022 L 255 221.022 C 254.448 221.022 254 220.574 254 220.022 L 254 161.948 C 254 161.396 254.448 160.948 255 160.948 L 299.869 160.948 C 300.421 160.948 300.869 161.396 300.869 161.948 L 300.869 220.022 C 300.869 220.574 300.422 221.022 299.869 221.022 Z  M 256 219.022 L 298.869 219.022 L 298.869 162.948 L 256 162.948 L 256 219.022 Z " fill="rgb(0,114,205)"/></g><g id="Group"><rect x="209.92" y="161.947" width="44.869" height="58.074" transform="matrix(1,0,0,1,0,0)" fill="rgb(255,255,255)"/></g><g id="Group"><path d=" M 254.789 221.022 L 209.92 221.022 C 209.368 221.022 208.92 220.574 208.92 220.022 L 208.92 161.948 C 208.92 161.396 209.368 160.948 209.92 160.948 L 254.789 160.948 C 255.341 160.948 255.789 161.396 255.789 161.948 L 255.789 220.022 C 255.789 220.574 255.341 221.022 254.789 221.022 Z  M 210.92 219.022 L 253.789 219.022 L 253.789 162.948 L 210.92 162.948 L 210.92 219.022 L 210.92 219.022 Z " fill="rgb(0,114,205)"/></g><g id="Group"><path d=" M 255 224.647 L 204.296 224.647 C 203.744 224.647 203.296 224.199 203.296 223.647 L 203.296 158.324 C 203.296 157.772 203.744 157.324 204.296 157.324 L 255 157.324 C 255.552 157.324 256 157.772 256 158.324 L 256 223.647 C 256 224.199 255.552 224.647 255 224.647 Z  M 205.296 222.647 L 254 222.647 L 254 159.324 L 205.296 159.324 L 205.296 222.647 Z " fill="rgb(0,114,205)"/></g><g id="Group"><path d=" M 290.607 158.322 L 290.607 181.47 L 286.794 179.065 L 282.981 181.47 L 282.98 158.322 L 290.607 158.322 Z " fill="rgb(84,170,227)"/></g><g id="Group"><path d=" M 305.47 224.647 L 255 224.647 C 254.448 224.647 254 224.199 254 223.647 L 254 158.324 C 254 157.772 254.448 157.324 255 157.324 L 305.47 157.324 C 306.022 157.324 306.47 157.772 306.47 158.324 L 306.47 223.647 C 306.47 224.199 306.022 224.647 305.47 224.647 Z  M 256 222.647 L 304.47 222.647 L 304.47 159.324 L 256 159.324 L 256 222.647 Z " fill="rgb(0,114,205)"/></g></g><g id="Group"><g id="Group"><rect x="22.689" y="223.492" width="15" height="4" transform="matrix(1,0,0,1,0,0)" fill="rgb(0,114,205)"/></g><g id="Group"><rect x="319.689" y="223.492" width="15" height="4" transform="matrix(1,0,0,1,0,0)" fill="rgb(0,114,205)"/></g><g id="Group"><rect x="46.439" y="223.492" width="260.25" height="4" transform="matrix(1,0,0,1,0,0)" fill="rgb(0,114,205)"/></g></g><g id="Group"><g id="Group"><g id="Group"><g id="Group"><g id="Group"><path d=" M 176.694 224.647 C 176.352 224.647 176.01 224.645 175.668 224.639 C 175.116 224.63 174.675 224.175 174.684 223.623 C 174.693 223.071 175.126 222.638 175.7 222.639 C 176.353 222.65 177.006 222.65 177.658 222.639 C 178.223 222.659 178.665 223.072 178.673 223.624 C 178.681 224.176 178.24 224.631 177.688 224.639 C 177.356 224.645 177.025 224.647 176.694 224.647 Z  M 181.644 224.458 C 181.126 224.458 180.688 224.059 180.648 223.534 C 180.606 222.984 181.019 222.503 181.569 222.461 C 182.219 222.412 182.869 222.352 183.518 222.282 C 184.064 222.222 184.56 222.619 184.619 223.169 C 184.678 223.718 184.281 224.211 183.732 224.27 C 183.063 224.342 182.392 224.403 181.721 224.455 C 181.695 224.457 181.67 224.458 181.644 224.458 Z  M 171.712 224.456 C 171.687 224.456 171.66 224.455 171.634 224.453 C 170.963 224.401 170.293 224.339 169.623 224.267 C 169.074 224.208 168.677 223.714 168.736 223.165 C 168.795 222.615 169.29 222.217 169.838 222.278 C 170.487 222.348 171.137 222.408 171.788 222.458 C 172.339 222.5 172.751 222.981 172.708 223.532 C 172.667 224.057 172.229 224.456 171.712 224.456 Z  M 187.564 223.731 C 187.085 223.731 186.662 223.386 186.579 222.898 C 186.487 222.353 186.853 221.837 187.397 221.745 C 188.041 221.636 188.682 221.516 189.321 221.388 C 189.864 221.282 190.39 221.629 190.499 222.171 C 190.608 222.713 190.257 223.24 189.716 223.349 C 189.056 223.482 188.394 223.605 187.731 223.717 C 187.675 223.727 187.619 223.731 187.564 223.731 Z  M 165.791 223.725 C 165.735 223.725 165.679 223.721 165.622 223.711 C 164.958 223.598 164.296 223.474 163.636 223.34 C 163.095 223.23 162.745 222.703 162.855 222.161 C 162.965 221.62 163.492 221.269 164.034 221.38 C 164.674 221.51 165.316 221.63 165.959 221.739 C 166.503 221.832 166.87 222.348 166.777 222.893 C 166.693 223.381 166.27 223.725 165.791 223.725 Z  M 193.391 222.464 C 192.949 222.464 192.544 222.169 192.425 221.721 C 192.283 221.187 192.6 220.639 193.134 220.497 C 193.763 220.329 194.391 220.152 195.017 219.964 C 195.546 219.808 196.103 220.106 196.262 220.635 C 196.421 221.164 196.12 221.721 195.591 221.88 C 194.946 222.073 194.299 222.256 193.649 222.429 C 193.563 222.453 193.476 222.464 193.391 222.464 Z  M 159.963 222.452 C 159.878 222.452 159.791 222.441 159.704 222.417 C 159.054 222.243 158.406 222.059 157.761 221.865 C 157.232 221.706 156.932 221.148 157.092 220.619 C 157.252 220.09 157.809 219.792 158.338 219.95 C 158.964 220.138 159.592 220.317 160.223 220.486 C 160.756 220.629 161.073 221.177 160.93 221.711 C 160.808 222.157 160.404 222.452 159.963 222.452 Z  M 199.076 220.665 C 198.669 220.665 198.286 220.414 198.138 220.01 C 197.947 219.492 198.213 218.917 198.731 218.726 C 199.342 218.501 199.95 218.267 200.555 218.022 C 201.069 217.816 201.65 218.063 201.857 218.574 C 202.064 219.086 201.816 219.669 201.305 219.876 C 200.68 220.128 200.052 220.371 199.421 220.603 C 199.307 220.645 199.191 220.665 199.076 220.665 Z  M 154.276 220.645 C 154.161 220.645 154.043 220.624 153.929 220.582 C 153.298 220.348 152.67 220.105 152.045 219.852 C 151.533 219.644 151.286 219.061 151.494 218.55 C 151.702 218.038 152.284 217.792 152.796 217.999 C 153.402 218.245 154.012 218.481 154.623 218.707 C 155.141 218.899 155.405 219.474 155.214 219.992 C 155.065 220.395 154.682 220.645 154.276 220.645 Z  M 204.569 218.347 C 204.196 218.347 203.838 218.138 203.666 217.778 C 203.428 217.28 203.639 216.683 204.137 216.445 C 204.724 216.164 205.308 215.874 205.889 215.574 C 206.378 215.32 206.983 215.513 207.236 216.004 C 207.489 216.495 207.297 217.098 206.806 217.351 C 206.208 217.66 205.605 217.959 204.999 218.249 C 204.861 218.316 204.714 218.347 204.569 218.347 Z  M 148.781 218.317 C 148.636 218.317 148.489 218.286 148.349 218.219 C 147.743 217.928 147.139 217.627 146.539 217.316 C 146.049 217.062 145.857 216.458 146.112 215.968 C 146.366 215.478 146.968 215.287 147.46 215.541 C 148.041 215.842 148.625 216.134 149.213 216.416 C 149.711 216.655 149.921 217.252 149.683 217.75 C 149.512 218.107 149.154 218.317 148.781 218.317 Z  M 209.822 215.53 C 209.482 215.53 209.15 215.356 208.963 215.043 C 208.68 214.569 208.835 213.955 209.309 213.672 C 209.867 213.339 210.421 212.995 210.97 212.643 C 211.436 212.344 212.053 212.48 212.352 212.945 C 212.65 213.41 212.515 214.028 212.05 214.327 C 211.483 214.691 210.911 215.045 210.334 215.389 C 210.174 215.485 209.997 215.53 209.822 215.53 Z  M 143.526 215.488 C 143.351 215.488 143.173 215.442 143.012 215.345 C 142.435 214.999 141.863 214.643 141.294 214.278 C 140.83 213.979 140.695 213.361 140.994 212.896 C 141.293 212.433 141.911 212.297 142.376 212.596 C 142.927 212.95 143.482 213.295 144.041 213.631 C 144.515 213.915 144.668 214.529 144.384 215.003 C 144.197 215.315 143.866 215.488 143.526 215.488 Z  M 214.79 212.239 C 214.482 212.239 214.178 212.097 213.982 211.829 C 213.656 211.383 213.753 210.758 214.199 210.432 C 214.723 210.048 215.243 209.656 215.759 209.254 C 216.195 208.916 216.822 208.993 217.162 209.428 C 217.502 209.863 217.424 210.491 216.988 210.831 C 216.457 211.246 215.921 211.651 215.38 212.046 C 215.201 212.176 214.994 212.239 214.79 212.239 Z  M 138.556 212.182 C 138.35 212.182 138.143 212.119 137.965 211.988 C 137.423 211.59 136.886 211.183 136.354 210.767 C 135.919 210.427 135.842 209.798 136.183 209.363 C 136.524 208.927 137.151 208.852 137.587 209.192 C 138.103 209.596 138.625 209.991 139.15 210.377 C 139.595 210.704 139.691 211.33 139.363 211.775 C 139.167 212.041 138.863 212.182 138.556 212.182 Z  M 219.432 208.501 C 219.155 208.501 218.88 208.387 218.682 208.164 C 218.316 207.75 218.355 207.118 218.768 206.752 C 219.256 206.32 219.738 205.88 220.216 205.432 C 220.619 205.055 221.252 205.074 221.63 205.476 C 222.008 205.879 221.988 206.512 221.586 206.89 C 221.094 207.352 220.597 207.806 220.094 208.25 C 219.904 208.418 219.668 208.501 219.432 208.501 Z  M 133.911 208.432 C 133.675 208.432 133.439 208.349 133.248 208.181 C 132.753 207.743 132.264 207.296 131.779 206.841 C 131.377 206.463 131.346 205.821 131.723 205.419 C 132.101 205.016 132.722 204.985 133.124 205.361 L 133.146 205.382 C 133.619 205.826 134.094 206.259 134.574 206.685 C 134.988 207.051 135.026 207.683 134.659 208.097 C 134.463 208.318 134.188 208.432 133.911 208.432 Z  M 129.631 204.279 C 129.365 204.279 129.1 204.174 128.903 203.965 C 128.44 203.473 127.986 202.976 127.542 202.473 C 127.176 202.059 127.215 201.427 127.628 201.061 C 128.042 200.694 128.674 200.733 129.04 201.147 C 129.471 201.634 129.911 202.117 130.359 202.593 C 130.737 202.995 130.718 203.628 130.317 204.007 C 130.123 204.189 129.877 204.279 129.631 204.279 Z  M 224.484 203.992 L 223.715 203.35 L 223.013 202.638 C 223.462 202.159 223.889 201.691 224.309 201.219 C 224.675 200.805 225.307 200.767 225.721 201.136 C 226.134 201.503 226.171 202.135 225.804 202.548 C 225.372 203.032 224.932 203.514 224.484 203.992 Z  M 227.604 199.825 C 227.388 199.825 227.171 199.756 226.988 199.612 C 226.553 199.272 226.477 198.643 226.818 198.208 C 227.222 197.692 227.617 197.171 228.003 196.646 C 228.33 196.2 228.955 196.104 229.401 196.432 C 229.846 196.759 229.942 197.385 229.615 197.83 C 229.217 198.372 228.809 198.909 228.392 199.442 C 228.195 199.693 227.901 199.825 227.604 199.825 Z  M 125.748 199.753 C 125.451 199.753 125.156 199.621 124.959 199.368 C 124.544 198.837 124.139 198.301 123.743 197.76 C 123.416 197.315 123.513 196.689 123.959 196.363 C 124.405 196.037 125.031 196.134 125.356 196.579 C 125.74 197.103 126.133 197.623 126.535 198.138 C 126.875 198.573 126.798 199.201 126.362 199.541 C 126.18 199.683 125.964 199.753 125.748 199.753 Z  M 231.063 194.96 C 230.878 194.96 230.69 194.909 230.523 194.801 C 230.059 194.502 229.924 193.884 230.223 193.419 C 230.577 192.868 230.923 192.313 231.259 191.754 C 231.544 191.282 232.158 191.128 232.631 191.412 C 233.104 191.696 233.257 192.311 232.973 192.784 C 232.627 193.361 232.271 193.932 231.906 194.501 C 231.714 194.798 231.392 194.96 231.063 194.96 Z  M 122.303 194.891 C 121.973 194.891 121.651 194.728 121.46 194.431 C 121.097 193.864 120.743 193.292 120.398 192.717 C 120.114 192.243 120.269 191.629 120.742 191.345 C 121.217 191.063 121.829 191.216 122.114 191.689 C 122.448 192.247 122.791 192.801 123.144 193.351 C 123.442 193.816 123.307 194.434 122.842 194.733 C 122.675 194.84 122.488 194.891 122.303 194.891 Z  M 234.056 189.797 C 233.901 189.797 233.743 189.761 233.597 189.685 C 233.107 189.431 232.915 188.827 233.17 188.337 C 233.472 187.756 233.763 187.171 234.046 186.584 C 234.286 186.086 234.884 185.878 235.38 186.116 C 235.878 186.355 236.088 186.953 235.848 187.45 C 235.556 188.056 235.255 188.659 234.945 189.258 C 234.767 189.6 234.418 189.797 234.056 189.797 Z  M 119.323 189.73 C 118.961 189.73 118.612 189.533 118.434 189.189 C 118.124 188.59 117.825 187.988 117.535 187.382 C 117.297 186.884 117.508 186.287 118.006 186.049 C 118.505 185.81 119.101 186.021 119.339 186.52 C 119.62 187.107 119.91 187.691 120.21 188.27 C 120.464 188.761 120.272 189.364 119.781 189.618 C 119.634 189.695 119.477 189.73 119.323 189.73 Z  M 236.556 184.378 C 236.431 184.378 236.304 184.354 236.181 184.304 C 235.669 184.096 235.423 183.513 235.63 183.001 C 235.876 182.395 236.112 181.786 236.338 181.174 C 236.529 180.656 237.106 180.393 237.623 180.583 C 238.141 180.775 238.405 181.35 238.214 181.868 C 237.98 182.499 237.737 183.127 237.483 183.752 C 237.326 184.142 236.951 184.378 236.556 184.378 Z  M 116.834 184.314 C 116.438 184.314 116.064 184.078 115.907 183.689 C 115.655 183.065 115.412 182.437 115.179 181.806 C 114.988 181.288 115.253 180.713 115.772 180.522 C 116.29 180.331 116.864 180.597 117.056 181.115 C 117.281 181.726 117.516 182.335 117.761 182.939 C 117.969 183.451 117.721 184.034 117.209 184.241 C 117.086 184.29 116.959 184.314 116.834 184.314 Z  M 238.543 178.752 C 238.447 178.752 238.351 178.738 238.254 178.709 C 237.725 178.55 237.425 177.992 237.585 177.463 C 237.773 176.837 237.952 176.209 238.121 175.579 C 238.264 175.046 238.811 174.728 239.346 174.872 C 239.88 175.015 240.196 175.563 240.053 176.097 C 239.879 176.746 239.695 177.394 239.5 178.04 C 239.369 178.472 238.972 178.752 238.543 178.752 Z  M 114.857 178.689 C 114.427 178.689 114.029 178.409 113.899 177.976 C 113.706 177.331 113.523 176.684 113.349 176.035 C 113.206 175.501 113.524 174.953 114.057 174.81 C 114.591 174.668 115.139 174.985 115.282 175.518 C 115.45 176.148 115.628 176.776 115.816 177.402 C 115.975 177.931 115.674 178.488 115.145 178.647 C 115.049 178.676 114.952 178.689 114.857 178.689 Z  M 239.998 172.965 C 239.932 172.965 239.865 172.959 239.798 172.945 C 239.257 172.835 238.907 172.308 239.017 171.766 C 239.147 171.126 239.267 170.484 239.376 169.841 C 239.469 169.297 239.99 168.932 240.53 169.024 C 241.074 169.117 241.44 169.634 241.347 170.179 C 241.233 170.842 241.11 171.504 240.976 172.164 C 240.881 172.638 240.464 172.965 239.998 172.965 Z  M 113.408 172.905 C 112.942 172.905 112.525 172.577 112.429 172.103 C 112.295 171.443 112.173 170.781 112.059 170.118 C 111.966 169.574 112.332 169.057 112.877 168.964 C 113.423 168.871 113.938 169.238 114.031 169.782 C 114.14 170.425 114.26 171.067 114.389 171.706 C 114.498 172.248 114.148 172.775 113.607 172.884 C 113.54 172.898 113.473 172.905 113.408 172.905 Z  M 240.913 167.071 C 240.877 167.071 240.841 167.069 240.805 167.065 C 240.256 167.006 239.859 166.513 239.918 165.963 C 239.988 165.313 240.049 164.663 240.099 164.013 C 240.141 163.462 240.62 163.048 241.173 163.093 C 241.724 163.136 242.135 163.617 242.093 164.167 C 242.041 164.838 241.978 165.508 241.906 166.178 C 241.851 166.691 241.418 167.071 240.913 167.071 Z  M 112.497 167.011 C 111.993 167.011 111.559 166.631 111.504 166.118 C 111.432 165.449 111.37 164.779 111.318 164.108 C 111.276 163.557 111.688 163.077 112.238 163.034 C 112.795 162.992 113.269 163.404 113.312 163.954 C 113.362 164.604 113.422 165.255 113.492 165.904 C 113.551 166.453 113.154 166.946 112.605 167.005 C 112.569 167.009 112.533 167.011 112.497 167.011 Z  M 241.282 161.117 C 241.277 161.117 241.271 161.117 241.266 161.117 C 240.714 161.108 240.273 160.654 240.282 160.101 C 240.287 159.759 240.29 159.417 240.29 159.076 C 240.29 158.764 240.288 158.453 240.283 158.142 C 240.275 157.59 240.717 157.136 241.269 157.128 C 241.812 157.145 242.275 157.561 242.283 158.114 C 242.287 158.434 242.29 158.755 242.29 159.075 C 242.29 159.427 242.287 159.779 242.282 160.132 C 242.273 160.679 241.827 161.117 241.282 161.117 Z  M 112.132 161.058 C 111.588 161.058 111.141 160.621 111.132 160.074 C 111.127 159.733 111.124 159.392 111.124 159.051 C 111.124 158.718 111.126 158.386 111.131 158.054 C 111.139 157.502 111.587 157.074 112.146 157.069 C 112.698 157.077 113.139 157.532 113.131 158.084 C 113.126 158.406 113.124 158.728 113.124 159.051 C 113.124 159.381 113.126 159.711 113.132 160.042 C 113.141 160.594 112.7 161.049 112.148 161.058 C 112.143 161.058 112.137 161.058 112.132 161.058 Z  M 241.103 155.155 C 240.585 155.155 240.147 154.756 240.107 154.231 C 240.057 153.581 239.998 152.931 239.929 152.281 C 239.87 151.732 240.268 151.239 240.817 151.181 C 241.376 151.122 241.859 151.52 241.917 152.069 C 241.989 152.738 242.05 153.409 242.101 154.08 C 242.143 154.63 241.73 155.111 241.18 155.153 C 241.154 155.154 241.128 155.155 241.103 155.155 Z  M 112.315 155.096 C 112.289 155.096 112.264 155.095 112.237 155.093 C 111.686 155.051 111.274 154.57 111.317 154.019 C 111.369 153.348 111.43 152.678 111.502 152.008 C 111.561 151.459 112.053 151.063 112.603 151.121 C 113.152 151.18 113.549 151.673 113.49 152.222 C 113.421 152.871 113.361 153.521 113.311 154.173 C 113.271 154.697 112.833 155.096 112.315 155.096 Z  M 240.379 149.236 C 239.9 149.236 239.476 148.891 239.394 148.403 C 239.285 147.76 239.166 147.118 239.038 146.479 C 238.929 145.937 239.28 145.411 239.821 145.301 C 240.361 145.193 240.889 145.542 240.999 146.084 C 241.132 146.744 241.254 147.406 241.366 148.07 C 241.458 148.614 241.091 149.131 240.547 149.222 C 240.49 149.231 240.434 149.236 240.379 149.236 Z  M 113.043 149.176 C 112.987 149.176 112.931 149.172 112.874 149.162 C 112.33 149.069 111.963 148.553 112.056 148.008 C 112.169 147.344 112.292 146.682 112.426 146.022 C 112.535 145.481 113.064 145.128 113.604 145.24 C 114.146 145.349 114.496 145.877 114.386 146.418 C 114.257 147.059 114.137 147.7 114.028 148.344 C 113.945 148.831 113.522 149.176 113.043 149.176 Z  M 239.114 143.408 C 238.672 143.408 238.267 143.112 238.148 142.664 C 237.981 142.034 237.803 141.406 237.616 140.781 C 237.458 140.252 237.759 139.695 238.287 139.536 C 238.815 139.375 239.374 139.679 239.532 140.207 C 239.725 140.853 239.908 141.5 240.08 142.15 C 240.222 142.684 239.904 143.231 239.37 143.373 C 239.285 143.397 239.199 143.408 239.114 143.408 Z  M 114.314 143.347 C 114.229 143.347 114.142 143.336 114.056 143.313 C 113.522 143.17 113.205 142.623 113.348 142.089 C 113.522 141.439 113.705 140.791 113.9 140.145 C 114.059 139.616 114.618 139.316 115.145 139.475 C 115.674 139.634 115.974 140.191 115.815 140.72 C 115.627 141.346 115.449 141.974 115.281 142.604 C 115.16 143.052 114.756 143.347 114.314 143.347 Z  M 237.318 137.723 C 236.911 137.723 236.528 137.472 236.38 137.068 C 236.155 136.456 235.92 135.847 235.676 135.242 C 235.47 134.729 235.718 134.147 236.23 133.941 C 236.745 133.735 237.325 133.983 237.531 134.496 C 237.782 135.121 238.024 135.748 238.256 136.378 C 238.447 136.896 238.181 137.471 237.663 137.662 C 237.549 137.703 237.433 137.723 237.318 137.723 Z  M 116.118 137.661 C 116.003 137.661 115.886 137.641 115.772 137.598 C 115.254 137.407 114.989 136.832 115.18 136.314 C 115.413 135.683 115.656 135.054 115.909 134.429 C 116.117 133.918 116.7 133.67 117.211 133.878 C 117.723 134.086 117.97 134.669 117.762 135.18 C 117.516 135.786 117.281 136.395 117.055 137.007 C 116.907 137.41 116.525 137.661 116.118 137.661 Z  M 235.004 132.229 C 234.631 132.229 234.273 132.019 234.101 131.66 C 233.821 131.073 233.531 130.489 233.231 129.909 C 232.978 129.418 233.17 128.815 233.661 128.562 C 234.151 128.307 234.754 128.501 235.008 128.992 C 235.317 129.591 235.616 130.193 235.905 130.799 C 236.143 131.298 235.932 131.894 235.433 132.132 C 235.295 132.198 235.148 132.229 235.004 132.229 Z  M 118.443 132.165 C 118.298 132.165 118.151 132.134 118.012 132.067 C 117.513 131.829 117.303 131.232 117.542 130.734 C 117.833 130.127 118.133 129.524 118.443 128.924 C 118.697 128.434 119.3 128.241 119.791 128.496 C 120.281 128.75 120.473 129.353 120.219 129.844 C 119.918 130.425 119.627 131.01 119.345 131.597 C 119.173 131.955 118.815 132.165 118.443 132.165 Z  M 232.19 126.975 C 231.85 126.975 231.518 126.801 231.331 126.488 C 230.998 125.929 230.655 125.375 230.303 124.825 C 230.005 124.36 230.141 123.742 230.606 123.444 C 231.07 123.146 231.689 123.281 231.987 123.747 C 232.35 124.314 232.704 124.886 233.048 125.462 C 233.331 125.936 233.176 126.55 232.702 126.833 C 232.541 126.929 232.364 126.975 232.19 126.975 Z  M 121.269 126.909 C 121.094 126.909 120.917 126.863 120.756 126.767 C 120.282 126.483 120.128 125.869 120.412 125.395 C 120.758 124.818 121.113 124.245 121.478 123.676 C 121.776 123.211 122.394 123.076 122.86 123.375 C 123.324 123.673 123.459 124.292 123.161 124.757 C 122.807 125.308 122.463 125.862 122.128 126.422 C 121.94 126.736 121.609 126.909 121.269 126.909 Z  M 228.901 122.006 C 228.593 122.006 228.289 121.864 228.093 121.596 C 227.709 121.072 227.317 120.551 226.915 120.036 C 226.576 119.6 226.654 118.972 227.089 118.632 C 227.524 118.292 228.152 118.37 228.493 118.807 C 228.907 119.338 229.311 119.874 229.707 120.415 C 230.033 120.861 229.936 121.486 229.49 121.812 C 229.312 121.943 229.105 122.006 228.901 122.006 Z  M 124.571 121.937 C 124.366 121.937 124.159 121.874 123.981 121.744 C 123.536 121.417 123.439 120.792 123.766 120.346 C 124.163 119.804 124.57 119.267 124.987 118.734 C 125.327 118.298 125.957 118.223 126.391 118.562 C 126.826 118.902 126.903 119.531 126.563 119.966 C 126.159 120.483 125.764 121.004 125.379 121.529 C 125.183 121.795 124.88 121.937 124.571 121.937 Z  M 225.164 117.361 C 224.887 117.361 224.612 117.247 224.414 117.023 C 223.983 116.536 223.544 116.053 223.095 115.575 C 222.717 115.173 222.737 114.54 223.139 114.161 C 223.54 113.783 224.173 113.802 224.553 114.205 C 225.015 114.697 225.469 115.195 225.913 115.698 C 226.279 116.112 226.24 116.744 225.826 117.11 C 225.635 117.279 225.399 117.361 225.164 117.361 Z  M 128.32 117.29 C 128.085 117.29 127.848 117.207 127.658 117.039 C 127.244 116.673 127.206 116.041 127.572 115.627 C 128.017 115.124 128.47 114.627 128.933 114.135 L 129.016 114.047 C 129.397 113.646 130.03 113.63 130.43 114.009 C 130.831 114.389 130.847 115.022 130.468 115.423 L 130.394 115.502 C 129.942 115.982 129.502 116.465 129.071 116.952 C 128.871 117.176 128.596 117.29 128.32 117.29 Z  M 220.971 113.063 C 220.744 113.063 220.518 112.98 220.333 112.808 C 220.33 112.806 220.263 112.742 220.26 112.739 C 219.809 112.315 219.349 111.895 218.884 111.482 C 218.471 111.115 218.433 110.483 218.8 110.07 C 219.166 109.656 219.798 109.618 220.212 109.986 C 220.691 110.411 221.167 110.845 221.636 111.287 C 222.038 111.665 222.09 112.327 221.713 112.729 C 221.508 112.947 221.239 113.063 220.971 113.063 Z  M 132.556 112.927 C 132.289 112.927 132.023 112.821 131.827 112.611 C 131.449 112.208 131.47 111.575 131.872 111.197 C 132.364 110.736 132.862 110.282 133.365 109.839 C 133.779 109.474 134.411 109.513 134.776 109.927 C 135.142 110.341 135.102 110.973 134.688 111.338 C 134.2 111.769 133.717 112.209 133.24 112.656 C 133.047 112.838 132.801 112.927 132.556 112.927 Z  M 216.491 109.185 C 216.275 109.185 216.057 109.116 215.875 108.972 C 215.359 108.568 214.838 108.172 214.312 107.786 C 213.867 107.459 213.772 106.833 214.099 106.388 C 214.428 105.944 215.052 105.847 215.497 106.175 C 216.039 106.574 216.576 106.981 217.107 107.398 C 217.542 107.739 217.618 108.367 217.277 108.802 C 217.082 109.053 216.788 109.185 216.491 109.185 Z  M 137.088 109.05 C 136.791 109.05 136.496 108.918 136.298 108.665 C 135.959 108.229 136.037 107.601 136.473 107.261 C 137.004 106.847 137.541 106.442 138.083 106.047 C 138.53 105.72 139.155 105.819 139.48 106.265 C 139.806 106.711 139.708 107.336 139.262 107.662 C 138.738 108.045 138.218 108.437 137.702 108.839 C 137.52 108.981 137.303 109.05 137.088 109.05 Z  M 211.627 105.723 C 211.441 105.723 211.254 105.672 211.086 105.563 C 210.536 105.209 209.982 104.863 209.422 104.527 C 208.949 104.243 208.796 103.628 209.08 103.155 C 209.364 102.682 209.979 102.529 210.452 102.813 C 211.029 103.16 211.601 103.516 212.169 103.882 C 212.633 104.181 212.767 104.8 212.467 105.264 C 212.278 105.561 211.956 105.723 211.627 105.723 Z  M 141.955 105.611 C 141.625 105.611 141.303 105.448 141.112 105.15 C 140.814 104.685 140.95 104.067 141.415 103.769 C 141.982 103.406 142.555 103.053 143.131 102.709 C 143.606 102.426 144.219 102.582 144.502 103.056 C 144.785 103.53 144.629 104.144 144.155 104.427 C 143.596 104.76 143.042 105.102 142.492 105.454 C 142.326 105.56 142.139 105.611 141.955 105.611 Z  M 206.465 102.727 C 206.31 102.727 206.152 102.691 206.005 102.614 C 205.425 102.312 204.84 102.02 204.253 101.738 C 203.755 101.499 203.545 100.902 203.785 100.404 C 204.024 99.906 204.623 99.698 205.119 99.936 C 205.725 100.227 206.328 100.529 206.928 100.84 C 207.418 101.095 207.609 101.698 207.354 102.189 C 207.175 102.531 206.826 102.727 206.465 102.727 Z  M 147.12 102.638 C 146.757 102.638 146.408 102.441 146.23 102.096 C 145.977 101.605 146.169 101.002 146.661 100.749 C 147.26 100.44 147.862 100.142 148.469 99.853 C 148.967 99.617 149.564 99.827 149.802 100.326 C 150.039 100.825 149.828 101.421 149.329 101.659 C 148.741 101.939 148.157 102.228 147.577 102.527 C 147.43 102.602 147.274 102.638 147.12 102.638 Z  M 201.048 100.226 C 200.923 100.226 200.796 100.202 200.672 100.152 C 200.066 99.906 199.457 99.67 198.846 99.443 C 198.328 99.251 198.064 98.675 198.256 98.158 C 198.447 97.639 199.026 97.376 199.541 97.568 C 200.172 97.802 200.8 98.046 201.425 98.3 C 201.937 98.508 202.183 99.091 201.975 99.603 C 201.817 99.99 201.443 100.226 201.048 100.226 Z  M 152.54 100.157 C 152.144 100.157 151.769 99.92 151.612 99.531 C 151.405 99.019 151.653 98.436 152.165 98.23 C 152.79 97.978 153.418 97.736 154.049 97.504 C 154.567 97.316 155.142 97.58 155.333 98.098 C 155.523 98.617 155.257 99.191 154.739 99.382 C 154.128 99.606 153.519 99.84 152.914 100.084 C 152.791 100.134 152.664 100.157 152.54 100.157 Z  M 195.423 98.238 C 195.327 98.238 195.23 98.224 195.133 98.195 C 194.507 98.006 193.88 97.827 193.249 97.658 C 192.716 97.515 192.399 96.966 192.542 96.433 C 192.686 95.899 193.235 95.583 193.767 95.726 C 194.417 95.901 195.065 96.085 195.71 96.28 C 196.239 96.44 196.538 96.998 196.378 97.527 C 196.249 97.959 195.852 98.238 195.423 98.238 Z  M 158.166 98.189 C 157.735 98.189 157.338 97.909 157.208 97.475 C 157.05 96.946 157.351 96.389 157.879 96.23 C 158.525 96.037 159.172 95.855 159.822 95.682 C 160.356 95.539 160.903 95.858 161.045 96.392 C 161.187 96.926 160.869 97.473 160.335 97.615 C 159.705 97.782 159.077 97.959 158.452 98.146 C 158.358 98.176 158.261 98.189 158.166 98.189 Z  M 189.638 96.78 C 189.572 96.78 189.505 96.774 189.438 96.76 C 188.798 96.63 188.156 96.51 187.513 96.4 C 186.969 96.307 186.603 95.79 186.696 95.246 C 186.79 94.703 187.308 94.335 187.85 94.429 C 188.514 94.543 189.176 94.667 189.836 94.801 C 190.378 94.911 190.727 95.439 190.617 95.98 C 190.521 96.453 190.104 96.78 189.638 96.78 Z  M 163.952 96.748 C 163.485 96.748 163.068 96.42 162.973 95.945 C 162.865 95.403 163.215 94.876 163.757 94.768 C 164.417 94.636 165.079 94.514 165.742 94.402 C 166.283 94.304 166.802 94.676 166.894 95.221 C 166.986 95.765 166.619 96.282 166.075 96.373 C 165.432 96.482 164.79 96.6 164.15 96.728 C 164.083 96.741 164.017 96.748 163.952 96.748 Z  M 183.744 95.862 C 183.707 95.862 183.671 95.86 183.634 95.856 C 182.985 95.785 182.335 95.725 181.684 95.674 C 181.134 95.631 180.722 95.15 180.765 94.599 C 180.808 94.048 181.272 93.63 181.84 93.68 C 182.511 93.733 183.181 93.795 183.851 93.868 C 184.4 93.928 184.796 94.421 184.737 94.971 C 184.681 95.483 184.248 95.862 183.744 95.862 Z  M 169.846 95.846 C 169.341 95.846 168.908 95.465 168.853 94.952 C 168.794 94.403 169.192 93.91 169.741 93.852 C 170.411 93.78 171.081 93.719 171.752 93.669 C 172.307 93.626 172.783 94.041 172.824 94.591 C 172.866 95.142 172.453 95.622 171.902 95.663 C 171.252 95.712 170.602 95.771 169.952 95.84 C 169.917 95.844 169.882 95.846 169.846 95.846 Z  M 177.79 95.49 C 177.784 95.49 177.779 95.49 177.773 95.49 C 177.121 95.479 176.469 95.477 175.815 95.488 C 175.282 95.457 174.809 95.054 174.801 94.502 C 174.793 93.95 175.235 93.496 175.787 93.488 C 176.46 93.479 177.133 93.479 177.807 93.49 C 178.359 93.499 178.799 93.954 178.79 94.507 C 178.78 95.053 178.335 95.49 177.79 95.49 Z " fill="rgb(0,114,205)"/></g></g></g></g></g><g id="Group"><g id="Group"><path d=" M 116.771 159.582 C 116.771 126.415 143.699 99.487 176.866 99.487 C 210.033 99.487 236.961 126.415 236.961 159.582 C 236.961 192.749 210.033 219.677 176.866 219.677 C 143.699 219.677 116.771 192.749 116.771 159.582 Z " fill="rgb(84,170,227)"/></g><g id="Group"><clipPath id="_clipPath_Uu9QKlZM7FSZ3rRmRitEPfI5rW1OVVm5"><path d=" M 116.453 159.582 C 116.453 126.415 143.381 99.487 176.548 99.487 C 209.715 99.487 236.643 126.415 236.643 159.582 C 236.643 192.749 209.715 219.677 176.548 219.677 C 143.381 219.677 116.453 192.749 116.453 159.582 Z " fill="rgb(255,255,255)"/></clipPath><g clip-path="url(#_clipPath_Uu9QKlZM7FSZ3rRmRitEPfI5rW1OVVm5)"><g id="Group"><rect x="160.182" y="200.898" width="32.733" height="24.527" transform="matrix(1,0,0,1,0,0)" fill="rgb(146,208,239)"/></g></g><clipPath id="_clipPath_aez9AxBNjkqpY8IvFh4PeGSBX3b2JmEq"><path d=" M 116.453 159.582 C 116.453 126.415 143.381 99.487 176.548 99.487 C 209.715 99.487 236.643 126.415 236.643 159.582 C 236.643 192.749 209.715 219.677 176.548 219.677 C 143.381 219.677 116.453 192.749 116.453 159.582 Z " fill="rgb(255,255,255)"/></clipPath><g clip-path="url(#_clipPath_aez9AxBNjkqpY8IvFh4PeGSBX3b2JmEq)"><g id="Group"><rect x="165.247" y="202.049" width="9.134" height="22.086" transform="matrix(1,0,0,1,0,0)" fill="rgb(255,255,255)"/></g></g><clipPath id="_clipPath_vyIaa9EnDvkczcJNeoAn2NCe8qq2U3na"><path d=" M 116.453 159.582 C 116.453 126.415 143.381 99.487 176.548 99.487 C 209.715 99.487 236.643 126.415 236.643 159.582 C 236.643 192.749 209.715 219.677 176.548 219.677 C 143.381 219.677 116.453 192.749 116.453 159.582 Z " fill="rgb(255,255,255)"/></clipPath><g clip-path="url(#_clipPath_vyIaa9EnDvkczcJNeoAn2NCe8qq2U3na)"><g id="Group"><path d=" M 192.915 226.425 L 160.182 226.425 C 159.63 226.425 159.182 225.977 159.182 225.425 L 159.182 200.898 C 159.182 200.346 159.63 199.898 160.182 199.898 L 192.915 199.898 C 193.467 199.898 193.915 200.346 193.915 200.898 L 193.915 225.425 C 193.915 225.977 193.467 226.425 192.915 226.425 Z  M 161.182 224.425 L 191.915 224.425 L 191.915 201.898 L 161.182 201.898 L 161.182 224.425 Z " fill="rgb(0,114,205)"/></g></g></g><g id="Group"><g id="Group"><g id="Group"><g id="Group"><g id="Group"><path d=" M 244.904 100.189 L 108.192 100.189 C 105.822 100.189 103.9 102.156 103.9 104.583 L 103.9 191.336 L 249.196 191.336 L 249.196 104.582 C 249.196 102.155 247.275 100.189 244.904 100.189 Z " fill="rgb(146,208,239)"/></g></g></g></g><g id="Group"><g id="Group"><g id="Group"><g id="Group"><path d=" M 249.196 192.335 L 103.9 192.335 C 103.348 192.335 102.9 191.887 102.9 191.335 L 102.9 104.582 C 102.9 101.608 105.274 99.188 108.192 99.188 L 244.905 99.188 C 247.823 99.188 250.197 101.607 250.197 104.582 L 250.197 191.335 C 250.196 191.887 249.749 192.335 249.196 192.335 Z  M 104.9 190.335 L 248.196 190.335 L 248.196 104.582 C 248.196 102.711 246.719 101.188 244.904 101.188 L 108.192 101.188 C 106.377 101.188 104.9 102.71 104.9 104.582 L 104.9 190.335 Z " fill="rgb(0,114,205)"/></g></g></g></g><g id="Group"><g id="Group"><g id="Group"><g id="Group"><rect x="110.875" y="106.647" width="131.521" height="78.18" transform="matrix(1,0,0,1,0,0)" fill="rgb(255,255,255)"/></g></g></g></g><g id="Group"><g id="Group"><g id="Group"><g id="Group"><path d=" M 103.9 190.479 L 103.9 196.11 C 103.9 198.536 105.822 200.503 108.192 200.503 L 244.905 200.503 C 247.275 200.503 249.197 198.536 249.197 196.11 L 249.197 190.479 L 103.9 190.479 Z " fill="rgb(84,170,227)"/></g></g></g></g><g id="Group"><g id="Group"><g id="Group"><g id="Group"><path d=" M 244.904 201.502 L 108.192 201.502 C 105.274 201.502 102.9 199.083 102.9 196.109 L 102.9 190.478 C 102.9 189.926 103.348 189.478 103.9 189.478 L 249.196 189.478 C 249.748 189.478 250.196 189.926 250.196 190.478 L 250.196 196.109 C 250.196 199.083 247.822 201.502 244.904 201.502 Z  M 104.9 191.479 L 104.9 196.11 C 104.9 197.981 106.377 199.503 108.192 199.503 L 244.905 199.503 C 246.72 199.503 248.197 197.981 248.197 196.11 L 248.197 191.479 L 104.9 191.479 Z " fill="rgb(0,114,205)"/></g></g></g></g><g id="Group"><g id="Group"><g id="Group"><g id="Group"><rect x="110.875" y="106.647" width="131.548" height="7.136" transform="matrix(1,0,0,1,0,0)" fill="rgb(234,245,254)"/></g></g></g></g><g id="Group"><g id="Group"><g id="Group"><g id="Group"><rect x="110.875" y="179.751" width="131.548" height="5.075" transform="matrix(1,0,0,1,0,0)" fill="rgb(234,245,254)"/></g></g></g></g><g id="Group"><g id="Group"><g id="Group"><g id="Group"><path d=" M 242.396 185.826 L 110.875 185.826 C 110.323 185.826 109.875 185.378 109.875 184.826 L 109.875 106.646 C 109.875 106.094 110.323 105.646 110.875 105.646 L 242.396 105.646 C 242.948 105.646 243.396 106.094 243.396 106.646 L 243.396 184.826 C 243.396 185.379 242.948 185.826 242.396 185.826 Z  M 111.875 183.826 L 241.396 183.826 L 241.396 107.646 L 111.875 107.646 L 111.875 183.826 Z " fill="rgb(0,114,205)"/></g></g></g></g></g><g id="Group"><g id="Group"><rect x="178.113" y="169.024" width="53.435" height="11.009" transform="matrix(1,0,0,1,0,0)" fill="rgb(84,170,227)"/></g><g id="Group"><rect x="124.431" y="169.024" width="53.683" height="11.009" transform="matrix(1,0,0,1,0,0)" fill="rgb(84,170,227)"/></g><g id="Group"><rect x="178.113" y="111.492" width="53.435" height="57.531" transform="matrix(1,0,0,1,0,0)" fill="rgb(255,255,255)"/></g><g id="Group"><rect x="124.431" y="111.492" width="53.683" height="57.531" transform="matrix(1,0,0,1,0,0)" fill="rgb(255,255,255)"/></g><g id="Group"><path d=" M 145 111.492 L 145 133.614 L 139.533 131.315 L 134.068 133.614 L 134.066 111.492 L 145 111.492 Z " fill="rgb(84,170,227)"/></g><g id="Group"><path d=" M 231.548 170.024 L 178.113 170.024 C 177.561 170.024 177.113 169.576 177.113 169.024 L 177.113 111.492 C 177.113 110.94 177.561 110.492 178.113 110.492 L 231.548 110.492 C 232.1 110.492 232.548 110.94 232.548 111.492 L 232.548 169.023 C 232.548 169.576 232.1 170.024 231.548 170.024 Z  M 179.113 168.024 L 230.548 168.024 L 230.548 112.492 L 179.113 112.492 L 179.113 168.024 Z " fill="rgb(0,114,205)"/></g><g id="Group"><path d=" M 178.113 170.024 L 124.43 170.024 C 123.878 170.024 123.43 169.576 123.43 169.024 L 123.43 111.492 C 123.43 110.94 123.878 110.492 124.43 110.492 L 178.113 110.492 C 178.665 110.492 179.113 110.94 179.113 111.492 L 179.113 169.023 C 179.113 169.576 178.666 170.024 178.113 170.024 Z  M 125.431 168.024 L 177.114 168.024 L 177.114 112.492 L 125.431 112.492 L 125.431 168.024 Z " fill="rgb(0,114,205)"/></g><g id="Group"><path d=" M 231.548 181.032 L 178.113 181.032 C 177.561 181.032 177.113 180.584 177.113 180.032 L 177.113 169.023 C 177.113 168.471 177.561 168.023 178.113 168.023 L 231.548 168.023 C 232.1 168.023 232.548 168.471 232.548 169.023 L 232.548 180.032 C 232.548 180.585 232.1 181.032 231.548 181.032 Z  M 179.113 179.032 L 230.548 179.032 L 230.548 170.023 L 179.113 170.023 L 179.113 179.032 Z " fill="rgb(0,114,205)"/></g><g id="Group"><path d=" M 178.113 181.032 L 124.43 181.032 C 123.878 181.032 123.43 180.584 123.43 180.032 L 123.43 169.023 C 123.43 168.471 123.878 168.023 124.43 168.023 L 178.113 168.023 C 178.665 168.023 179.113 168.471 179.113 169.023 L 179.113 180.032 C 179.113 180.585 178.666 181.032 178.113 181.032 Z  M 125.431 179.032 L 177.114 179.032 L 177.114 170.023 L 125.431 170.023 L 125.431 179.032 Z " fill="rgb(0,114,205)"/></g><g id="Group"><rect x="211.541" y="116.407" width="11.93" height="2" transform="matrix(1,0,0,1,0,0)" fill="rgb(0,114,205)"/></g><g id="Group"><rect x="192.342" y="122.004" width="31.129" height="2" transform="matrix(1,0,0,1,0,0)" fill="rgb(0,114,205)"/></g><g id="Group"><rect x="186.564" y="133.036" width="31.874" height="2" transform="matrix(1,0,0,1,0,0)" fill="rgb(0,114,205)"/></g><g id="Group"><rect x="186.564" y="144.494" width="17.074" height="2" transform="matrix(1,0,0,1,0,0)" fill="rgb(0,114,205)"/></g><g id="Group"><rect x="186.564" y="138.793" width="17.074" height="2" transform="matrix(1,0,0,1,0,0)" fill="rgb(0,114,205)"/></g><g id="Group"><rect x="186.564" y="150.465" width="17.074" height="2" transform="matrix(1,0,0,1,0,0)" fill="rgb(0,114,205)"/></g><g id="Group"><rect x="186.564" y="156.061" width="17.074" height="2" transform="matrix(1,0,0,1,0,0)" fill="rgb(0,114,205)"/></g><g id="Group"><rect x="186.564" y="162.003" width="38.352" height="2" transform="matrix(1,0,0,1,0,0)" fill="rgb(0,114,205)"/></g><g id="Group"><rect x="155.994" y="132.983" width="9.071" height="2" transform="matrix(1,0,0,1,0,0)" fill="rgb(0,114,205)"/></g><g id="Group"><rect x="133.192" y="144.443" width="36.907" height="2" transform="matrix(1,0,0,1,0,0)" fill="rgb(0,114,205)"/></g><g id="Group"><rect x="133.192" y="138.739" width="36.907" height="2" transform="matrix(1,0,0,1,0,0)" fill="rgb(0,114,205)"/></g><g id="Group"><rect x="133.192" y="150.41" width="36.907" height="2" transform="matrix(1,0,0,1,0,0)" fill="rgb(0,114,205)"/></g><g id="Group"><rect x="133.192" y="156.007" width="36.907" height="2" transform="matrix(1,0,0,1,0,0)" fill="rgb(0,114,205)"/></g><g id="Group"><rect x="139.532" y="162.003" width="30.566" height="2" transform="matrix(1,0,0,1,0,0)" fill="rgb(0,114,205)"/></g><g id="Group"><path d=" M 165.593 129.835 C 162.25 129.835 159.53 127.114 159.53 123.771 C 159.53 120.428 162.25 117.708 165.593 117.708 C 168.937 117.708 171.657 120.428 171.657 123.771 C 171.657 127.114 168.937 129.835 165.593 129.835 Z  M 165.593 119.707 C 163.352 119.707 161.53 121.53 161.53 123.77 C 161.53 126.011 163.353 127.834 165.593 127.834 C 167.834 127.834 169.657 126.011 169.657 123.77 C 169.657 121.53 167.834 119.707 165.593 119.707 Z " fill="rgb(0,114,205)"/></g><g id="Group"><rect x="207.906" y="139.739" width="16.943" height="17.322" transform="matrix(1,0,0,1,0,0)" fill="rgb(214,234,250)"/></g><g id="Group"><rect x="200.424" y="173.529" width="26.298" height="2" transform="matrix(1,0,0,1,0,0)" fill="rgb(0,114,205)"/></g><g id="Group"><rect x="192.342" y="173.529" width="5.192" height="2" transform="matrix(1,0,0,1,0,0)" fill="rgb(0,114,205)"/></g><g id="Group"><rect x="166.297" y="173.529" width="7.019" height="2" transform="matrix(1,0,0,1,0,0)" fill="rgb(0,114,205)"/></g><g id="Group"><rect x="151.645" y="173.529" width="11.401" height="2" transform="matrix(1,0,0,1,0,0)" fill="rgb(0,114,205)"/></g><g id="Group"><rect x="130.382" y="173.529" width="18.302" height="2" transform="matrix(1,0,0,1,0,0)" fill="rgb(0,114,205)"/></g></g></g><g id="Group"><g id="Group"><g id="Group"><g id="Group"><g id="Group"><path d=" M 219.844 222.461 L 272.817 222.405 C 276.008 222.399 278.589 219.922 278.585 216.873 C 278.58 213.924 276.162 211.52 273.121 211.367 L 219.826 211.424 L 219.844 222.461 Z " fill-rule="evenodd" fill="rgb(255,255,255)"/></g></g></g></g><g id="Group"><g id="Group"><g id="Group"><g id="Group"><path d=" M 217.526 223.965 L 217.523 220.965 L 272.816 220.904 C 273.97 220.902 275.051 220.474 275.86 219.697 C 276.651 218.938 277.085 217.936 277.084 216.874 C 277.081 214.74 275.306 212.979 273.044 212.865 L 217.507 212.928 L 217.504 209.928 L 273.118 209.867 C 277.052 210.063 280.077 213.138 280.083 216.869 C 280.086 218.758 279.324 220.531 277.937 221.862 C 276.568 223.176 274.75 223.901 272.819 223.904 L 217.526 223.965 Z " fill="rgb(0,114,205)"/></g></g></g></g><g id="Group"><g id="Group"><g id="Group"><g id="Group"><g id="Group"><path d=" M 234.427 215.068 L 229.607 215.045 L 229.547 227.965 L 231.972 225.916 L 234.367 227.987 L 234.427 215.068 Z " fill-rule="evenodd" fill="rgb(91,185,233)"/></g></g></g></g></g><g id="Group"><g id="Group"><g id="Group"><g id="Group"><g id="Group"><path d=" M 234.367 228.987 C 234.132 228.987 233.898 228.904 233.713 228.743 L 231.964 227.232 L 230.192 228.729 C 229.894 228.981 229.477 229.037 229.123 228.872 C 228.77 228.707 228.544 228.351 228.546 227.961 L 228.606 215.041 C 228.607 214.775 228.714 214.521 228.902 214.335 C 229.09 214.149 229.302 214.04 229.61 214.045 L 234.43 214.067 C 234.982 214.069 235.428 214.519 235.425 215.071 L 235.365 227.99 C 235.363 228.381 235.135 228.734 234.779 228.896 C 234.649 228.957 234.508 228.987 234.367 228.987 Z  M 231.972 224.916 C 232.205 224.916 232.438 224.997 232.626 225.16 L 233.378 225.809 L 233.423 216.062 L 230.603 216.049 L 230.558 225.801 L 231.328 225.151 C 231.513 224.995 231.742 224.916 231.972 224.916 Z " fill="rgb(0,114,205)"/></g></g></g></g></g><g id="Group"><path d=" M 219.953 222.435 C 219.409 222.435 218.963 221.998 218.953 221.452 L 218.79 212.019 C 218.781 211.467 219.221 211.012 219.773 211.002 C 220.343 211.002 220.78 211.433 220.79 211.985 L 220.953 221.418 C 220.962 221.97 220.522 222.425 219.97 222.435 C 219.965 222.435 219.959 222.435 219.953 222.435 Z " fill="rgb(0,114,205)"/></g></g><g id="Group"><g id="Group"><g id="Group"><g id="Group"><g id="Group"><path d=" M 233.614 209.251 L 286.532 209.186 C 290.201 209.18 293.17 206.331 293.164 202.825 C 293.158 199.434 290.378 196.671 286.882 196.493 L 233.593 196.558 L 233.614 209.251 Z " fill-rule="evenodd" fill="rgb(255,255,255)"/></g></g></g></g><g id="Group"><g id="Group"><g id="Group"><g id="Group"><path d=" M 230.948 210.755 L 230.944 207.755 L 286.53 207.686 C 287.916 207.684 289.215 207.168 290.187 206.235 C 291.142 205.319 291.666 204.109 291.664 202.826 C 291.66 200.253 289.525 198.129 286.806 197.991 L 230.928 198.062 L 230.924 195.062 L 286.88 194.993 C 291.272 195.214 294.657 198.652 294.664 202.822 C 294.667 204.931 293.815 206.913 292.265 208.401 C 290.732 209.872 288.698 210.684 286.535 210.687 L 230.948 210.755 Z " fill="rgb(0,114,205)"/></g></g></g></g><g id="Group"><g id="Group"><g id="Group"><g id="Group"><g id="Group"><path d=" M 271.657 200.748 L 266.113 200.722 L 266.045 215.579 L 268.833 213.224 L 271.588 215.606 L 271.657 200.748 Z " fill-rule="evenodd" fill="rgb(91,185,233)"/></g></g></g></g></g><g id="Group"><g id="Group"><g id="Group"><g id="Group"><g id="Group"><path d=" M 271.588 216.606 C 271.352 216.606 271.119 216.523 270.934 216.362 L 268.826 214.539 L 266.691 216.343 C 266.393 216.595 265.976 216.651 265.622 216.486 C 265.269 216.321 265.043 215.965 265.045 215.575 L 265.113 200.718 C 265.114 200.452 265.221 200.198 265.409 200.012 C 265.597 199.825 265.803 199.723 266.117 199.722 L 271.661 199.748 C 272.213 199.75 272.659 200.201 272.656 200.753 L 272.587 215.61 C 272.585 216 272.356 216.354 272.001 216.515 C 271.869 216.576 271.728 216.606 271.588 216.606 Z  M 268.833 212.224 C 269.066 212.224 269.299 212.305 269.487 212.468 L 270.598 213.428 L 270.652 201.743 L 267.109 201.726 L 267.055 213.416 L 268.188 212.459 C 268.374 212.302 268.604 212.224 268.833 212.224 Z " fill="rgb(0,114,205)"/></g></g></g></g></g><g id="Group"><path d=" M 233.74 209.071 C 233.196 209.071 232.75 208.634 232.74 208.089 L 232.552 197.241 C 232.543 196.689 232.983 196.233 233.534 196.223 C 234.134 196.203 234.542 196.654 234.552 197.205 L 234.74 208.053 C 234.749 208.605 234.309 209.061 233.758 209.071 C 233.752 209.071 233.746 209.071 233.74 209.071 Z " fill="rgb(0,114,205)"/></g></g><g id="Group"><path d=" M 92.897 133.532 L 90.897 133.532 C 90.345 133.532 89.897 133.084 89.897 132.532 C 89.897 131.98 90.345 131.532 90.897 131.532 L 92.897 131.532 C 93.449 131.532 93.897 131.98 93.897 132.532 C 93.897 133.084 93.449 133.532 92.897 133.532 Z  M 86.897 133.532 L 84.897 133.532 C 84.345 133.532 83.897 133.084 83.897 132.532 C 83.897 131.98 84.345 131.532 84.897 131.532 L 86.897 131.532 C 87.449 131.532 87.897 131.98 87.897 132.532 C 87.897 133.084 87.449 133.532 86.897 133.532 Z  M 80.897 133.532 L 78.897 133.532 C 78.345 133.532 77.897 133.084 77.897 132.532 C 77.897 131.98 78.345 131.532 78.897 131.532 L 80.897 131.532 C 81.449 131.532 81.897 131.98 81.897 132.532 C 81.897 133.084 81.449 133.532 80.897 133.532 Z  M 74.897 133.532 L 72.897 133.532 C 72.345 133.532 71.897 133.084 71.897 132.532 C 71.897 131.98 72.345 131.532 72.897 131.532 L 74.897 131.532 C 75.449 131.532 75.897 131.98 75.897 132.532 C 75.897 133.084 75.449 133.532 74.897 133.532 Z  M 68.897 133.532 L 67.508 133.532 C 66.956 133.532 66.508 133.084 66.508 132.532 C 66.508 131.98 66.956 131.532 67.508 131.532 L 68.897 131.532 C 69.449 131.532 69.897 131.98 69.897 132.532 C 69.897 133.084 69.449 133.532 68.897 133.532 Z " fill="rgb(0,114,205)"/></g><g id="Group"><path d=" M 244.682 89.159 L 242.682 89.159 C 242.13 89.159 241.682 88.711 241.682 88.159 C 241.682 87.607 242.13 87.159 242.682 87.159 L 244.682 87.159 C 245.234 87.159 245.682 87.607 245.682 88.159 C 245.682 88.711 245.234 89.159 244.682 89.159 Z  M 238.682 89.159 L 236.682 89.159 C 236.13 89.159 235.682 88.711 235.682 88.159 C 235.682 87.607 236.13 87.159 236.682 87.159 L 238.682 87.159 C 239.234 87.159 239.682 87.607 239.682 88.159 C 239.682 88.711 239.234 89.159 238.682 89.159 Z  M 232.682 89.159 L 230.682 89.159 C 230.13 89.159 229.682 88.711 229.682 88.159 C 229.682 87.607 230.13 87.159 230.682 87.159 L 232.682 87.159 C 233.234 87.159 233.682 87.607 233.682 88.159 C 233.682 88.711 233.234 89.159 232.682 89.159 Z  M 226.682 89.159 L 224.682 89.159 C 224.13 89.159 223.682 88.711 223.682 88.159 C 223.682 87.607 224.13 87.159 224.682 87.159 L 226.682 87.159 C 227.234 87.159 227.682 87.607 227.682 88.159 C 227.682 88.711 227.234 89.159 226.682 89.159 Z  M 220.682 89.159 L 219.293 89.159 C 218.741 89.159 218.293 88.711 218.293 88.159 C 218.293 87.607 218.741 87.159 219.293 87.159 L 220.682 87.159 C 221.234 87.159 221.682 87.607 221.682 88.159 C 221.682 88.711 221.234 89.159 220.682 89.159 Z " fill="rgb(0,114,205)"/></g><g id="Group"><path d=" M 293.584 144.739 L 289.646 144.739 C 287.664 144.739 286.841 142.606 286.116 140.724 C 285.671 139.569 285.061 137.988 284.451 137.988 C 283.83 137.988 283.249 139.424 282.782 140.578 C 282.054 142.377 281.228 144.417 279.26 144.417 C 277.293 144.417 276.462 142.394 275.729 140.609 C 275.26 139.465 274.676 138.042 274.05 138.042 C 273.435 138.042 272.817 139.611 272.365 140.757 C 271.629 142.624 270.795 144.739 268.818 144.739 L 263.585 144.739 C 263.033 144.739 262.585 144.291 262.585 143.739 C 262.585 143.187 263.033 142.739 263.585 142.739 L 268.818 142.739 C 269.434 142.739 270.052 141.169 270.504 140.023 C 271.239 138.157 272.073 136.042 274.049 136.042 C 276.016 136.042 276.846 138.065 277.578 139.849 C 278.048 140.993 278.632 142.417 279.259 142.417 C 279.879 142.417 280.46 140.981 280.927 139.828 C 281.656 138.028 282.481 135.988 284.45 135.988 C 286.433 135.988 287.255 138.122 287.981 140.004 C 288.426 141.158 289.036 142.739 289.645 142.739 L 293.583 142.739 C 294.135 142.739 294.583 143.187 294.583 143.739 C 294.583 144.291 294.136 144.739 293.584 144.739 Z " fill="rgb(0,114,205)"/></g><g id="Group"><path d=" M 139.431 87.539 L 135.493 87.539 C 133.51 87.539 132.688 85.405 131.962 83.523 C 131.517 82.369 130.907 80.788 130.298 80.788 C 129.677 80.788 129.095 82.224 128.628 83.378 C 127.899 85.177 127.074 87.216 125.106 87.216 C 123.138 87.216 122.308 85.193 121.575 83.408 C 121.106 82.265 120.522 80.842 119.897 80.842 C 119.281 80.842 118.663 82.412 118.211 83.558 C 117.476 85.424 116.642 87.539 114.666 87.539 L 109.432 87.539 C 108.88 87.539 108.432 87.091 108.432 86.539 C 108.432 85.987 108.88 85.539 109.432 85.539 L 114.666 85.539 C 115.281 85.539 115.899 83.97 116.351 82.824 C 117.087 80.957 117.921 78.842 119.898 78.842 C 121.864 78.842 122.694 80.864 123.426 82.649 C 123.896 83.793 124.48 85.216 125.107 85.216 C 125.728 85.216 126.309 83.78 126.776 82.627 C 127.505 80.828 128.331 78.788 130.299 78.788 C 132.281 78.788 133.104 80.921 133.829 82.803 C 134.274 83.958 134.884 85.539 135.494 85.539 L 139.432 85.539 C 139.984 85.539 140.432 85.987 140.432 86.539 C 140.432 87.091 139.983 87.539 139.431 87.539 Z " fill="rgb(0,114,205)"/></g><g id="Group"><path d=" M 231.378 70.492 L 227.44 70.492 C 225.457 70.492 224.635 68.358 223.909 66.476 C 223.464 65.322 222.854 63.741 222.245 63.741 C 221.623 63.741 221.042 65.178 220.575 66.331 C 219.846 68.13 219.021 70.169 217.053 70.169 C 215.085 70.169 214.255 68.146 213.522 66.36 C 213.053 65.216 212.469 63.794 211.844 63.794 C 211.228 63.794 210.61 65.364 210.158 66.51 C 209.423 68.376 208.589 70.491 206.613 70.491 L 201.379 70.491 C 200.827 70.491 200.379 70.043 200.379 69.491 C 200.379 68.939 200.827 68.491 201.379 68.491 L 206.613 68.491 C 207.228 68.491 207.846 66.922 208.298 65.776 C 209.034 63.909 209.868 61.794 211.845 61.794 C 213.811 61.794 214.641 63.816 215.373 65.601 C 215.843 66.745 216.427 68.169 217.054 68.169 C 217.674 68.169 218.255 66.733 218.722 65.58 C 219.451 63.78 220.277 61.74 222.246 61.74 C 224.228 61.74 225.051 63.873 225.776 65.755 C 226.221 66.91 226.831 68.491 227.441 68.491 L 231.379 68.491 C 231.931 68.491 232.379 68.939 232.379 69.491 C 232.379 70.043 231.93 70.492 231.378 70.492 Z " fill="rgb(0,114,205)"/></g><g id="Group"><path d=" M 37.689 193.468 C 35.376 193.468 33.494 191.586 33.494 189.272 C 33.494 186.958 35.376 185.076 37.689 185.076 C 40.003 185.076 41.886 186.958 41.886 189.272 C 41.886 191.586 40.003 193.468 37.689 193.468 Z  M 37.689 187.075 C 36.479 187.075 35.494 188.06 35.494 189.271 C 35.494 190.482 36.479 191.467 37.689 191.467 C 38.9 191.467 39.886 190.482 39.886 189.271 C 39.886 188.06 38.9 187.075 37.689 187.075 Z " fill="rgb(0,114,205)"/></g><g id="Group"><path d=" M 91.833 103.684 C 89.519 103.684 87.637 101.802 87.637 99.488 C 87.637 97.174 89.519 95.292 91.833 95.292 C 94.147 95.292 96.03 97.174 96.03 99.488 C 96.03 101.802 94.148 103.684 91.833 103.684 Z  M 91.833 97.291 C 90.622 97.291 89.637 98.276 89.637 99.487 C 89.637 100.698 90.622 101.683 91.833 101.683 C 93.044 101.683 94.03 100.698 94.03 99.487 C 94.03 98.276 93.045 97.291 91.833 97.291 Z " fill="rgb(0,114,205)"/></g><g id="Group"><path d=" M 202.501 89.159 C 200.187 89.159 198.305 87.277 198.305 84.963 C 198.305 82.649 200.187 80.767 202.501 80.767 C 204.815 80.767 206.697 82.649 206.697 84.963 C 206.697 87.277 204.815 89.159 202.501 89.159 Z  M 202.501 82.767 C 201.29 82.767 200.305 83.752 200.305 84.963 C 200.305 86.174 201.29 87.159 202.501 87.159 C 203.712 87.159 204.697 86.174 204.697 84.963 C 204.697 83.752 203.712 82.767 202.501 82.767 Z " fill="rgb(0,114,205)"/></g><g id="Group"><path d=" M 255 85.963 C 252.686 85.963 250.804 84.081 250.804 81.767 C 250.804 79.453 252.686 77.571 255 77.571 C 257.314 77.571 259.196 79.453 259.196 81.767 C 259.196 84.081 257.314 85.963 255 85.963 Z  M 255 79.571 C 253.789 79.571 252.804 80.556 252.804 81.767 C 252.804 82.978 253.789 83.963 255 83.963 C 256.211 83.963 257.196 82.978 257.196 81.767 C 257.196 80.556 256.211 79.571 255 79.571 Z " fill="rgb(0,114,205)"/></g><g id="Group"><path d=" M 269.609 124.8 C 267.295 124.8 265.413 122.918 265.413 120.604 C 265.413 118.29 267.295 116.408 269.609 116.408 C 271.923 116.408 273.805 118.29 273.805 120.604 C 273.805 122.918 271.923 124.8 269.609 124.8 Z  M 269.609 118.407 C 268.398 118.407 267.413 119.392 267.413 120.603 C 267.413 121.814 268.398 122.799 269.609 122.799 C 270.82 122.799 271.805 121.814 271.805 120.603 C 271.805 119.392 270.82 118.407 269.609 118.407 Z " fill="rgb(0,114,205)"/></g><g id="Group"><g id="Group"><path d=" M 48.431 214.359 C 48.175 214.359 47.919 214.261 47.724 214.066 L 43.741 210.083 C 43.35 209.692 43.35 209.06 43.741 208.669 C 44.132 208.278 44.764 208.278 45.155 208.669 L 49.138 212.652 C 49.529 213.043 49.529 213.675 49.138 214.066 C 48.943 214.261 48.687 214.359 48.431 214.359 Z " fill="rgb(0,114,205)"/></g><g id="Group"><path d=" M 44.447 214.359 C 44.191 214.359 43.935 214.261 43.74 214.066 C 43.349 213.675 43.349 213.043 43.74 212.652 L 47.723 208.669 C 48.114 208.278 48.746 208.278 49.137 208.669 C 49.528 209.06 49.528 209.692 49.137 210.083 L 45.154 214.066 C 44.959 214.261 44.703 214.359 44.447 214.359 Z " fill="rgb(0,114,205)"/></g></g><g id="Group"><g id="Group"><path d=" M 87.017 123.595 C 86.761 123.595 86.505 123.497 86.31 123.302 L 82.328 119.319 C 81.937 118.928 81.937 118.295 82.328 117.905 C 82.719 117.514 83.351 117.514 83.742 117.905 L 87.724 121.888 C 88.115 122.279 88.115 122.912 87.724 123.302 C 87.529 123.497 87.273 123.595 87.017 123.595 Z " fill="rgb(0,114,205)"/></g><g id="Group"><path d=" M 83.034 123.595 C 82.778 123.595 82.522 123.497 82.327 123.302 C 81.936 122.912 81.936 122.279 82.327 121.888 L 86.309 117.905 C 86.7 117.514 87.332 117.514 87.723 117.905 C 88.114 118.295 88.114 118.928 87.723 119.319 L 83.741 123.302 C 83.546 123.497 83.29 123.595 83.034 123.595 Z " fill="rgb(0,114,205)"/></g></g><g id="Group"><g id="Group"><path d=" M 175.307 86.155 C 175.051 86.155 174.795 86.057 174.6 85.862 L 170.618 81.88 C 170.227 81.489 170.227 80.857 170.618 80.466 C 171.009 80.075 171.641 80.075 172.032 80.466 L 176.014 84.448 C 176.405 84.839 176.405 85.471 176.014 85.862 C 175.819 86.057 175.563 86.155 175.307 86.155 Z " fill="rgb(0,114,205)"/></g><g id="Group"><path d=" M 171.324 86.155 C 171.068 86.155 170.812 86.057 170.617 85.862 C 170.226 85.471 170.226 84.839 170.617 84.448 L 174.599 80.466 C 174.99 80.075 175.622 80.075 176.013 80.466 C 176.404 80.857 176.404 81.489 176.013 81.88 L 172.031 85.862 C 171.836 86.057 171.58 86.155 171.324 86.155 Z " fill="rgb(0,114,205)"/></g></g><g id="Group"><g id="Group"><path d=" M 268.036 102.479 C 267.78 102.479 267.524 102.381 267.329 102.186 L 263.347 98.204 C 262.956 97.813 262.956 97.181 263.347 96.79 C 263.738 96.399 264.37 96.399 264.761 96.79 L 268.743 100.772 C 269.134 101.163 269.134 101.795 268.743 102.186 C 268.548 102.381 268.292 102.479 268.036 102.479 Z " fill="rgb(0,114,205)"/></g><g id="Group"><path d=" M 264.054 102.479 C 263.798 102.479 263.542 102.381 263.347 102.186 C 262.956 101.795 262.956 101.163 263.347 100.772 L 267.329 96.79 C 267.72 96.399 268.352 96.399 268.743 96.79 C 269.134 97.181 269.134 97.813 268.743 98.204 L 264.761 102.186 C 264.566 102.381 264.31 102.479 264.054 102.479 Z " fill="rgb(0,114,205)"/></g></g></g></g></g></svg>