<?xml version="1.0" standalone="no"?><!-- Generator: Gravit.io --><svg xmlns="http://www.w3.org/2000/svg" xmlns:xlink="http://www.w3.org/1999/xlink" style="isolation:isolate" viewBox="0 0 356.321 297.493" width="356.321" height="297.493"><defs><clipPath id="_clipPath_SvK5XVWAXQmDbKyRhX83j7H364nrOvj3"><rect width="356.321" height="297.493"/></clipPath></defs><g clip-path="url(#_clipPath_SvK5XVWAXQmDbKyRhX83j7H364nrOvj3)"><g id="Group"><g id="Group"><g id="Group"><g id="Group"><path d=" M 41.865 151.948 C 41.865 77.527 102.286 17.106 176.707 17.106 C 251.128 17.106 311.549 77.527 311.549 151.948 C 311.549 226.369 251.128 286.79 176.707 286.79 C 102.286 286.79 41.865 226.369 41.865 151.948 Z " fill="rgb(234,245,254)"/></g><g id="Group"><path d=" M 176.106 44.311 L 89.982 44.311 C 82.7 44.311 76.797 38.409 76.797 31.126 L 76.797 31.126 C 76.797 23.845 82.7 17.941 89.982 17.941 L 176.106 17.941 C 183.388 17.941 189.291 23.844 189.291 31.126 L 189.291 31.126 C 189.291 38.409 183.388 44.311 176.106 44.311 Z " fill="rgb(234,245,254)"/></g><g id="Group"><path d=" M 176.707 272.56 C 110.202 272.56 56.096 218.454 56.096 151.948 C 56.096 85.443 110.202 31.337 176.707 31.337 C 243.212 31.337 297.319 85.443 297.319 151.948 C 297.319 218.454 243.212 272.56 176.707 272.56 Z  M 176.707 35.336 C 112.407 35.336 60.096 87.648 60.096 151.947 C 60.096 216.247 112.408 268.559 176.707 268.559 C 241.006 268.559 293.319 216.248 293.319 151.948 C 293.319 87.648 241.007 35.336 176.707 35.336 Z " fill="rgb(214,234,250)"/></g><g id="Group"><path d=" M 68.426 229.983 L 123.769 229.983 C 129.474 229.983 134.099 234.608 134.099 240.313 L 134.099 240.313 C 134.099 246.018 129.474 250.643 123.769 250.643 L 68.426 250.643 C 62.721 250.643 58.096 246.018 58.096 240.313 L 58.096 240.313 C 58.096 234.608 62.721 229.983 68.426 229.983 Z " fill="rgb(234,245,254)"/></g><g id="Group"><path d=" M 57.334 270.711 L 139.334 270.711 C 143.032 270.711 146.029 273.709 146.029 277.406 L 146.029 277.406 C 146.029 281.104 143.031 284.101 139.334 284.101 L 57.334 284.101 C 53.636 284.101 50.639 281.104 50.639 277.406 L 50.639 277.406 C 50.639 273.709 53.637 270.711 57.334 270.711 Z " fill="rgb(234,245,254)"/></g><g id="Group"><path d=" M 236.042 284.102 L 249.347 284.102 C 252.826 284.102 255.646 286.922 255.646 290.401 L 255.646 291.194 C 255.646 294.673 252.826 297.493 249.347 297.493 L 236.042 297.493 C 232.563 297.493 229.743 294.673 229.743 291.194 L 229.743 290.401 C 229.743 286.922 232.563 284.102 236.042 284.102 Z " fill="rgb(234,245,254)"/></g><g id="Group"><path d=" M 167.027 244.496 L 291.806 244.496 C 297.513 244.496 302.139 249.122 302.139 254.828 L 302.139 256.128 C 302.139 261.835 297.513 266.461 291.806 266.461 L 167.027 266.461 C 161.32 266.461 156.694 261.835 156.694 256.128 L 156.694 254.828 C 156.695 249.122 161.321 244.496 167.027 244.496 Z " fill="rgb(234,245,254)"/></g><g id="Group"><path d=" M 80.202 250.493 L 118.761 250.493 C 115.913 250.493 113.323 251.725 111.457 253.591 C 109.583 255.465 108.426 257.678 108.426 260.534 C 108.426 266.239 113.056 270.493 118.761 270.493 L 80.202 270.493 C 83.05 270.493 85.632 269.737 87.506 267.88 C 89.371 266.015 90.529 263.555 90.529 260.698 C 90.529 254.985 85.907 250.493 80.202 250.493 Z " fill="rgb(234,245,254)"/></g><g id="Group"><path d=" M 238.362 132.533 L 337.767 132.533 C 348.014 132.533 356.321 140.841 356.321 151.088 L 356.321 151.088 C 356.321 161.335 348.014 169.643 337.767 169.643 L 238.362 169.643 C 228.115 169.643 219.808 161.335 219.808 151.088 L 219.808 151.088 C 219.808 140.84 228.115 132.533 238.362 132.533 Z " fill="rgb(234,245,254)"/></g><g id="Group"><path d=" M 195.965 205.69 L 343.251 205.69 C 349.893 205.69 355.277 211.074 355.277 217.715 L 355.277 217.715 C 355.277 224.357 349.893 229.74 343.251 229.74 L 195.965 229.74 C 189.323 229.74 183.939 224.356 183.939 217.715 L 183.939 217.715 C 183.939 211.074 189.324 205.69 195.965 205.69 Z " fill="rgb(234,245,254)"/></g><g id="Group"><path d=" M 260.69 169.776 L 329.948 169.776 C 324.832 169.776 320.18 171.788 316.829 175.138 C 313.463 178.504 311.384 182.466 311.384 187.597 C 311.384 197.844 319.701 205.471 329.947 205.471 L 260.689 205.471 C 265.805 205.471 270.442 204.025 273.807 200.69 C 277.158 197.338 279.237 193.079 279.237 187.948 C 279.238 177.686 270.937 169.776 260.69 169.776 Z " fill="rgb(234,245,254)"/></g><g id="Group"><path d=" M 148.277 116.398 L 31.796 116.398 C 20.916 116.398 12.096 107.579 12.096 96.699 L 12.096 96.699 C 12.096 85.819 20.916 76.999 31.796 76.999 L 148.277 76.999 C 159.157 76.999 167.977 85.819 167.977 96.699 L 167.977 96.699 C 167.977 107.579 159.157 116.398 148.277 116.398 Z " fill="rgb(234,245,254)"/></g><g id="Group"><path d=" M 196.794 227.454 L 28.468 227.454 C 12.745 227.454 0 214.708 0 198.985 L 0 198.985 C 0 183.263 12.746 170.518 28.468 170.518 L 196.794 170.518 C 212.516 170.518 225.262 183.263 225.262 198.985 L 225.262 198.985 C 225.262 214.707 212.516 227.454 196.794 227.454 Z " fill="rgb(234,245,254)"/></g><g id="Group"><path d=" M 292.04 71.493 L 199.109 71.493 C 190.429 71.493 183.392 64.456 183.392 55.776 L 183.392 55.776 C 183.392 47.095 190.429 40.059 199.109 40.059 L 292.04 40.059 C 300.72 40.059 307.757 47.095 307.757 55.776 L 307.757 55.776 C 307.756 64.456 300.72 71.493 292.04 71.493 Z " fill="rgb(234,245,254)"/></g><g id="Group"><path d=" M 263.453 17.107 L 241.384 17.107 C 236.66 17.107 232.831 13.278 232.831 8.553 L 232.831 8.553 C 232.831 3.829 236.661 0 241.384 0 L 263.453 0 C 268.177 0 272.006 3.829 272.006 8.553 L 272.006 8.553 C 272.006 13.278 268.177 17.107 263.453 17.107 Z " fill="rgb(234,245,254)"/></g></g><g id="Group"><g id="XMLID_1436_"><g id="XMLID_1439_"><g id="Group"><g id="Group"><g id="Group"><path d=" M 84.488 95.981 C 84.237 95.346 76.59 83.347 76.59 83.347 C 76.59 83.347 69.27 94.989 68.792 95.981 L 84.488 95.981 Z " fill-rule="evenodd" fill="rgb(255,255,255)"/></g></g></g></g><g id="XMLID_1438_"><g id="Group"><g id="Group"><g id="Group"><path d=" M 84.488 96.981 L 68.792 96.981 C 68.448 96.981 68.128 96.804 67.945 96.513 C 67.762 96.222 67.741 95.857 67.891 95.547 C 68.379 94.533 74.992 84.011 75.744 82.815 C 75.927 82.525 76.245 82.348 76.588 82.347 C 76.589 82.347 76.59 82.347 76.591 82.347 C 76.933 82.347 77.251 82.521 77.434 82.809 C 79.748 86.441 85.16 94.959 85.419 95.612 C 85.541 95.92 85.502 96.268 85.316 96.542 C 85.13 96.816 84.819 96.981 84.488 96.981 Z  M 70.533 94.981 L 82.74 94.981 C 81.398 92.797 78.719 88.558 76.596 85.218 C 74.459 88.623 71.856 92.799 70.533 94.981 Z " fill="rgb(0,114,205)"/></g></g></g></g><g id="XMLID_1437_"><g id="Group"><g id="Group"><g id="Group"><path d=" M 72.845 89.424 L 80.371 89.401 L 76.589 83.347 L 72.845 89.424 Z " fill-rule="evenodd" fill="rgb(0,114,205)"/></g></g></g></g></g><g id="XMLID_1435_"><g id="Group"><g id="Group"><g id="Group"><path d=" M 84.322 96.43 L 68.746 96.477 L 68.78 208.684 L 84.322 208.684 L 84.322 96.43 Z " fill-rule="evenodd" fill="rgb(214,234,250)"/></g></g></g></g><g id="XMLID_1434_"><g id="Group"><g id="Group"><g id="Group"><path d=" M 84.322 209.684 L 68.78 209.684 C 68.228 209.684 67.78 209.236 67.78 208.684 L 67.746 96.478 C 67.746 95.927 68.192 95.479 68.743 95.478 L 84.319 95.431 C 84.32 95.431 84.321 95.431 84.322 95.431 C 84.587 95.431 84.841 95.536 85.028 95.723 C 85.216 95.911 85.322 96.165 85.322 96.431 L 85.322 208.685 C 85.322 209.236 84.874 209.684 84.322 209.684 Z  M 69.78 207.684 L 83.322 207.684 L 83.322 97.433 L 69.746 97.474 L 69.78 207.684 Z " fill="rgb(0,114,205)"/></g></g></g></g><g id="XMLID_1433_"><g id="Group"><g id="Group"><g id="Group"><path d=" M 79.209 96.43 L 73.859 96.477 L 73.871 208.684 L 79.209 208.684 L 79.209 96.43 Z " fill-rule="evenodd" fill="rgb(214,234,250)"/></g></g></g></g><g id="XMLID_1432_"><g id="Group"><g id="Group"><g id="Group"><path d=" M 79.209 209.684 L 73.871 209.684 C 73.319 209.684 72.871 209.236 72.871 208.684 L 72.859 96.477 C 72.859 95.928 73.301 95.482 73.85 95.477 L 79.2 95.43 C 79.469 95.429 79.723 95.532 79.913 95.72 C 80.102 95.908 80.209 96.163 80.209 96.43 L 80.209 208.684 C 80.209 209.236 79.761 209.684 79.209 209.684 Z  M 74.871 207.684 L 78.209 207.684 L 78.209 97.439 L 74.859 97.468 L 74.871 207.684 Z " fill="rgb(0,114,205)"/></g></g></g></g><g id="Group"><g id="Group"><g id="Group"><path d=" M 68.725 208.684 L 68.725 215.926 C 68.725 220.262 72.272 223.809 76.608 223.809 L 76.608 223.809 C 80.944 223.809 84.491 220.262 84.491 215.926 L 84.491 208.684 L 68.725 208.684 Z " fill-rule="evenodd" fill="rgb(84,170,227)"/></g></g></g><g id="Group"><g id="Group"><g id="Group"><path d=" M 76.608 224.809 C 71.71 224.809 67.725 220.824 67.725 215.926 L 67.725 208.684 C 67.725 208.132 68.173 207.684 68.725 207.684 L 84.491 207.684 C 85.043 207.684 85.491 208.132 85.491 208.684 L 85.491 215.926 C 85.491 220.824 81.506 224.809 76.608 224.809 Z  M 69.725 209.684 L 69.725 215.926 C 69.725 219.721 72.812 222.809 76.608 222.809 C 80.404 222.809 83.491 219.722 83.491 215.926 L 83.491 209.684 L 69.725 209.684 Z " fill="rgb(0,114,205)"/></g></g></g></g><g id="Group"><g id="Group"><rect x="22.161" y="223.493" width="15" height="4" transform="matrix(1,0,0,1,0,0)" fill="rgb(0,114,205)"/></g><g id="Group"><rect x="319.161" y="223.493" width="15" height="4" transform="matrix(1,0,0,1,0,0)" fill="rgb(0,114,205)"/></g><g id="Group"><rect x="45.911" y="223.493" width="260.25" height="4" transform="matrix(1,0,0,1,0,0)" fill="rgb(0,114,205)"/></g></g><g id="Group"><path d=" M 52.661 203.985 L 50.661 203.985 C 50.109 203.985 49.661 203.537 49.661 202.985 C 49.661 202.433 50.109 201.985 50.661 201.985 L 52.661 201.985 C 53.213 201.985 53.661 202.433 53.661 202.985 C 53.661 203.537 53.213 203.985 52.661 203.985 Z  M 46.661 203.985 L 44.661 203.985 C 44.109 203.985 43.661 203.537 43.661 202.985 C 43.661 202.433 44.109 201.985 44.661 201.985 L 46.661 201.985 C 47.213 201.985 47.661 202.433 47.661 202.985 C 47.661 203.537 47.213 203.985 46.661 203.985 Z  M 40.661 203.985 L 38.661 203.985 C 38.109 203.985 37.661 203.537 37.661 202.985 C 37.661 202.433 38.109 201.985 38.661 201.985 L 40.661 201.985 C 41.213 201.985 41.661 202.433 41.661 202.985 C 41.661 203.537 41.213 203.985 40.661 203.985 Z  M 34.661 203.985 L 32.661 203.985 C 32.109 203.985 31.661 203.537 31.661 202.985 C 31.661 202.433 32.109 201.985 32.661 201.985 L 34.661 201.985 C 35.213 201.985 35.661 202.433 35.661 202.985 C 35.661 203.537 35.213 203.985 34.661 203.985 Z  M 28.661 203.985 L 26.661 203.985 C 26.109 203.985 25.661 203.537 25.661 202.985 C 25.661 202.433 26.109 201.985 26.661 201.985 L 28.661 201.985 C 29.213 201.985 29.661 202.433 29.661 202.985 C 29.661 203.537 29.213 203.985 28.661 203.985 Z  M 22.661 203.985 L 21.661 203.985 C 21.109 203.985 20.661 203.537 20.661 202.985 C 20.661 202.433 21.109 201.985 21.661 201.985 L 22.661 201.985 C 23.213 201.985 23.661 202.433 23.661 202.985 C 23.661 203.537 23.213 203.985 22.661 203.985 Z " fill="rgb(0,114,205)"/></g><g id="Group"><path d=" M 253.383 76.007 L 251.383 76.007 C 250.831 76.007 250.383 75.559 250.383 75.007 C 250.383 74.455 250.831 74.007 251.383 74.007 L 253.383 74.007 C 253.935 74.007 254.383 74.455 254.383 75.007 C 254.383 75.559 253.936 76.007 253.383 76.007 Z  M 247.383 76.007 L 245.383 76.007 C 244.831 76.007 244.383 75.559 244.383 75.007 C 244.383 74.455 244.831 74.007 245.383 74.007 L 247.383 74.007 C 247.935 74.007 248.383 74.455 248.383 75.007 C 248.383 75.559 247.936 76.007 247.383 76.007 Z  M 241.383 76.007 L 239.383 76.007 C 238.831 76.007 238.383 75.559 238.383 75.007 C 238.383 74.455 238.831 74.007 239.383 74.007 L 241.383 74.007 C 241.935 74.007 242.383 74.455 242.383 75.007 C 242.383 75.559 241.936 76.007 241.383 76.007 Z  M 235.383 76.007 L 233.383 76.007 C 232.831 76.007 232.383 75.559 232.383 75.007 C 232.383 74.455 232.831 74.007 233.383 74.007 L 235.383 74.007 C 235.935 74.007 236.383 74.455 236.383 75.007 C 236.383 75.559 235.936 76.007 235.383 76.007 Z  M 229.383 76.007 L 227.383 76.007 C 226.831 76.007 226.383 75.559 226.383 75.007 C 226.383 74.455 226.831 74.007 227.383 74.007 L 229.383 74.007 C 229.935 74.007 230.383 74.455 230.383 75.007 C 230.383 75.559 229.936 76.007 229.383 76.007 Z  M 223.383 76.007 L 222.383 76.007 C 221.831 76.007 221.383 75.559 221.383 75.007 C 221.383 74.455 221.831 74.007 222.383 74.007 L 223.383 74.007 C 223.935 74.007 224.383 74.455 224.383 75.007 C 224.383 75.559 223.936 76.007 223.383 76.007 Z " fill="rgb(0,114,205)"/></g><g id="Group"><path d=" M 184.556 76.007 L 182.556 76.007 C 182.004 76.007 181.556 75.559 181.556 75.007 C 181.556 74.455 182.004 74.007 182.556 74.007 L 184.556 74.007 C 185.108 74.007 185.556 74.455 185.556 75.007 C 185.556 75.559 185.108 76.007 184.556 76.007 Z  M 178.556 76.007 L 176.556 76.007 C 176.004 76.007 175.556 75.559 175.556 75.007 C 175.556 74.455 176.004 74.007 176.556 74.007 L 178.556 74.007 C 179.108 74.007 179.556 74.455 179.556 75.007 C 179.556 75.559 179.108 76.007 178.556 76.007 Z  M 172.556 76.007 L 170.556 76.007 C 170.004 76.007 169.556 75.559 169.556 75.007 C 169.556 74.455 170.004 74.007 170.556 74.007 L 172.556 74.007 C 173.108 74.007 173.556 74.455 173.556 75.007 C 173.556 75.559 173.108 76.007 172.556 76.007 Z  M 166.556 76.007 L 164.556 76.007 C 164.004 76.007 163.556 75.559 163.556 75.007 C 163.556 74.455 164.004 74.007 164.556 74.007 L 166.556 74.007 C 167.108 74.007 167.556 74.455 167.556 75.007 C 167.556 75.559 167.108 76.007 166.556 76.007 Z  M 160.556 76.007 L 158.556 76.007 C 158.004 76.007 157.556 75.559 157.556 75.007 C 157.556 74.455 158.004 74.007 158.556 74.007 L 160.556 74.007 C 161.108 74.007 161.556 74.455 161.556 75.007 C 161.556 75.559 161.108 76.007 160.556 76.007 Z  M 154.556 76.007 L 153.556 76.007 C 153.004 76.007 152.556 75.559 152.556 75.007 C 152.556 74.455 153.004 74.007 153.556 74.007 L 154.556 74.007 C 155.108 74.007 155.556 74.455 155.556 75.007 C 155.556 75.559 155.108 76.007 154.556 76.007 Z " fill="rgb(0,114,205)"/></g><g id="Group"><path d=" M 217.272 58.16 L 215.272 58.16 C 214.72 58.16 214.272 57.712 214.272 57.16 C 214.272 56.608 214.72 56.16 215.272 56.16 L 217.272 56.16 C 217.824 56.16 218.272 56.608 218.272 57.16 C 218.272 57.712 217.824 58.16 217.272 58.16 Z  M 211.272 58.16 L 209.272 58.16 C 208.72 58.16 208.272 57.712 208.272 57.16 C 208.272 56.608 208.72 56.16 209.272 56.16 L 211.272 56.16 C 211.824 56.16 212.272 56.608 212.272 57.16 C 212.272 57.712 211.824 58.16 211.272 58.16 Z  M 205.272 58.16 L 203.272 58.16 C 202.72 58.16 202.272 57.712 202.272 57.16 C 202.272 56.608 202.72 56.16 203.272 56.16 L 205.272 56.16 C 205.824 56.16 206.272 56.608 206.272 57.16 C 206.272 57.712 205.824 58.16 205.272 58.16 Z  M 199.272 58.16 L 197.272 58.16 C 196.72 58.16 196.272 57.712 196.272 57.16 C 196.272 56.608 196.72 56.16 197.272 56.16 L 199.272 56.16 C 199.824 56.16 200.272 56.608 200.272 57.16 C 200.272 57.712 199.824 58.16 199.272 58.16 Z  M 193.272 58.16 L 191.272 58.16 C 190.72 58.16 190.272 57.712 190.272 57.16 C 190.272 56.608 190.72 56.16 191.272 56.16 L 193.272 56.16 C 193.824 56.16 194.272 56.608 194.272 57.16 C 194.272 57.712 193.824 58.16 193.272 58.16 Z  M 187.272 58.16 L 186.272 58.16 C 185.72 58.16 185.272 57.712 185.272 57.16 C 185.272 56.608 185.72 56.16 186.272 56.16 L 187.272 56.16 C 187.824 56.16 188.272 56.608 188.272 57.16 C 188.272 57.712 187.824 58.16 187.272 58.16 Z " fill="rgb(0,114,205)"/></g><g id="Group"><path d=" M 235.397 217.408 L 233.397 217.408 C 232.845 217.408 232.397 216.96 232.397 216.408 C 232.397 215.856 232.845 215.408 233.397 215.408 L 235.397 215.408 C 235.949 215.408 236.397 215.856 236.397 216.408 C 236.397 216.96 235.95 217.408 235.397 217.408 Z  M 229.397 217.408 L 227.397 217.408 C 226.845 217.408 226.397 216.96 226.397 216.408 C 226.397 215.856 226.845 215.408 227.397 215.408 L 229.397 215.408 C 229.949 215.408 230.397 215.856 230.397 216.408 C 230.397 216.96 229.95 217.408 229.397 217.408 Z  M 223.397 217.408 L 221.397 217.408 C 220.845 217.408 220.397 216.96 220.397 216.408 C 220.397 215.856 220.845 215.408 221.397 215.408 L 223.397 215.408 C 223.949 215.408 224.397 215.856 224.397 216.408 C 224.397 216.96 223.95 217.408 223.397 217.408 Z  M 217.397 217.408 L 215.397 217.408 C 214.845 217.408 214.397 216.96 214.397 216.408 C 214.397 215.856 214.845 215.408 215.397 215.408 L 217.397 215.408 C 217.949 215.408 218.397 215.856 218.397 216.408 C 218.397 216.96 217.95 217.408 217.397 217.408 Z  M 211.397 217.408 L 211.011 217.408 C 210.459 217.408 210.011 216.96 210.011 216.408 C 210.011 215.856 210.459 215.408 211.011 215.408 L 211.397 215.408 C 211.949 215.408 212.397 215.856 212.397 216.408 C 212.397 216.96 211.95 217.408 211.397 217.408 Z " fill="rgb(0,114,205)"/></g><g id="Group"><g id="Group"><path d=" M 296.246 101.301 C 296.246 101.301 287.945 106.797 287.945 115.191 L 278.799 115.191 C 278.799 106.797 270.498 101.327 270.498 101.327 L 283.372 86.419 L 296.246 101.301 Z " fill="rgb(255,255,255)"/></g><g id="Group"><path d=" M 284.034 99.555 L 284.034 87.582 L 283.177 86.309 L 282.17 87.804 L 282.17 99.635 C 281.237 100.118 280.526 101.083 280.526 102.209 C 280.526 103.814 281.797 105.117 283.403 105.117 C 285.009 105.117 286.038 103.814 286.038 102.209 C 286.037 101.024 285.899 100.008 284.034 99.555 Z " fill="rgb(84,170,227)"/></g><g id="Group"><path d=" M 287.945 116.191 L 278.799 116.191 C 278.247 116.191 277.799 115.743 277.799 115.191 C 277.799 107.449 270.026 102.213 269.947 102.161 C 269.707 102.002 269.547 101.748 269.508 101.463 C 269.469 101.178 269.553 100.89 269.741 100.672 L 282.615 85.764 C 282.805 85.544 283.081 85.418 283.371 85.418 L 283.371 85.418 C 283.662 85.418 283.937 85.544 284.127 85.764 L 297.001 100.647 C 297.189 100.864 297.274 101.152 297.235 101.437 C 297.196 101.722 297.037 101.976 296.797 102.135 C 296.719 102.187 288.943 107.448 288.943 115.192 C 288.945 115.743 288.497 116.191 287.945 116.191 Z  M 279.763 114.191 L 286.981 114.191 C 287.461 107.518 292.635 102.814 294.781 101.136 L 283.373 87.948 L 271.965 101.16 C 274.112 102.832 279.283 107.52 279.763 114.191 Z " fill="rgb(0,114,205)"/></g><g id="Group"><g id="Group"><path d=" M 276.133 213.211 L 276.133 218.494 C 276.133 222.492 279.374 225.733 283.372 225.733 L 283.372 225.733 C 287.37 225.733 290.611 222.492 290.611 218.494 L 290.611 213.211 L 276.133 213.211 L 276.133 213.211 Z " fill="rgb(146,208,239)"/></g></g><g id="Group"><g id="Group"><path d=" M 288.286 135.635 L 288.286 115.463 L 278.455 115.463 L 278.455 135.635 L 278.455 135.635 C 277.171 135.635 276.131 136.676 276.131 137.959 L 276.131 213.713 L 290.609 213.713 L 290.609 137.959 C 290.61 136.676 289.569 135.635 288.286 135.635 Z " fill="rgb(84,170,227)"/></g></g><g id="Group"><g id="Group"><path d=" M 290.61 214.545 L 276.132 214.545 C 275.58 214.545 275.132 214.097 275.132 213.545 L 275.132 137.791 C 275.132 136.307 276.11 135.046 277.456 134.621 L 277.456 115.295 C 277.456 114.743 277.904 114.295 278.456 114.295 L 288.287 114.295 C 288.839 114.295 289.287 114.743 289.287 115.295 L 289.287 134.621 C 290.633 135.046 291.611 136.307 291.611 137.791 L 291.611 213.545 C 291.61 214.098 291.162 214.545 290.61 214.545 Z  M 277.132 212.545 L 289.61 212.545 L 289.61 137.791 C 289.61 137.061 289.016 136.467 288.286 136.467 C 287.734 136.467 287.286 136.019 287.286 135.467 L 287.286 116.295 L 279.455 116.295 L 279.455 135.467 C 279.455 136.019 279.007 136.467 278.455 136.467 C 277.725 136.467 277.131 137.061 277.131 137.791 L 277.131 212.545 L 277.132 212.545 Z " fill="rgb(0,114,205)"/></g></g><g id="Group"><g id="Group"><path d=" M 283.373 226.734 C 278.83 226.734 275.134 223.038 275.134 218.495 L 275.134 213.212 C 275.134 212.66 275.582 212.212 276.134 212.212 L 290.612 212.212 C 291.164 212.212 291.612 212.66 291.612 213.212 L 291.612 218.495 C 291.611 223.038 287.916 226.734 283.373 226.734 Z  M 277.133 214.211 L 277.133 218.494 C 277.133 221.934 279.932 224.733 283.372 224.733 C 286.812 224.733 289.611 221.934 289.611 218.494 L 289.611 214.211 L 277.133 214.211 L 277.133 214.211 Z " fill="rgb(0,114,205)"/></g></g><g id="Group"><path d=" M 287.765 136.038 L 284.035 136.038 C 283.483 136.038 283.035 135.59 283.035 135.038 C 283.035 134.486 283.483 134.038 284.035 134.038 L 287.765 134.038 C 288.317 134.038 288.765 134.486 288.765 135.038 C 288.765 135.59 288.317 136.038 287.765 136.038 Z " fill="rgb(0,114,205)"/></g></g><g id="Group"><path d=" M 204.968 211.659 C 202.654 211.659 200.772 209.777 200.772 207.463 C 200.772 205.149 202.654 203.267 204.968 203.267 C 207.282 203.267 209.164 205.149 209.164 207.463 C 209.164 209.777 207.282 211.659 204.968 211.659 Z  M 204.968 205.266 C 203.757 205.266 202.772 206.251 202.772 207.462 C 202.772 208.673 203.757 209.658 204.968 209.658 C 206.179 209.658 207.164 208.673 207.164 207.462 C 207.164 206.251 206.179 205.266 204.968 205.266 Z " fill="rgb(0,114,205)"/></g><g id="Group"><path d=" M 306.161 214.211 C 303.847 214.211 301.965 212.329 301.965 210.015 C 301.965 207.701 303.847 205.819 306.161 205.819 C 308.475 205.819 310.357 207.701 310.357 210.015 C 310.357 212.329 308.475 214.211 306.161 214.211 Z  M 306.161 207.819 C 304.95 207.819 303.965 208.804 303.965 210.015 C 303.965 211.226 304.95 212.211 306.161 212.211 C 307.372 212.211 308.357 211.226 308.357 210.015 C 308.357 208.804 307.372 207.819 306.161 207.819 Z " fill="rgb(0,114,205)"/></g><g id="Group"><path d=" M 302.139 140.147 C 299.825 140.147 297.943 138.265 297.943 135.951 C 297.943 133.637 299.825 131.755 302.139 131.755 C 304.453 131.755 306.335 133.637 306.335 135.951 C 306.335 138.265 304.453 140.147 302.139 140.147 Z  M 302.139 133.754 C 300.928 133.754 299.943 134.739 299.943 135.95 C 299.943 137.161 300.928 138.146 302.139 138.146 C 303.35 138.146 304.335 137.161 304.335 135.95 C 304.335 134.739 303.35 133.754 302.139 133.754 Z " fill="rgb(0,114,205)"/></g><g id="Group"><path d=" M 203.501 72.493 C 201.187 72.493 199.305 70.611 199.305 68.297 C 199.305 65.983 201.187 64.101 203.501 64.101 C 205.815 64.101 207.697 65.983 207.697 68.297 C 207.697 70.611 205.815 72.493 203.501 72.493 Z  M 203.501 66.1 C 202.29 66.1 201.305 67.085 201.305 68.296 C 201.305 69.507 202.29 70.492 203.501 70.492 C 204.712 70.492 205.697 69.507 205.697 68.296 C 205.697 67.085 204.712 66.1 203.501 66.1 Z " fill="rgb(0,114,205)"/></g><g id="Group"><path d=" M 134.028 75.689 C 131.714 75.689 129.832 73.807 129.832 71.493 C 129.832 69.179 131.714 67.297 134.028 67.297 C 136.342 67.297 138.224 69.179 138.224 71.493 C 138.224 73.807 136.342 75.689 134.028 75.689 Z  M 134.028 69.296 C 132.817 69.296 131.832 70.281 131.832 71.492 C 131.832 72.703 132.817 73.688 134.028 73.688 C 135.239 73.688 136.224 72.703 136.224 71.492 C 136.224 70.281 135.239 69.296 134.028 69.296 Z " fill="rgb(0,114,205)"/></g><g id="Group"><path d=" M 40.357 218.855 C 38.043 218.855 36.161 216.973 36.161 214.659 C 36.161 212.345 38.043 210.463 40.357 210.463 C 42.671 210.463 44.553 212.345 44.553 214.659 C 44.553 216.973 42.671 218.855 40.357 218.855 Z  M 40.357 212.462 C 39.146 212.462 38.161 213.447 38.161 214.658 C 38.161 215.869 39.146 216.854 40.357 216.854 C 41.568 216.854 42.553 215.869 42.553 214.658 C 42.553 213.447 41.568 212.462 40.357 212.462 Z " fill="rgb(0,114,205)"/></g><g id="Group"><g id="Group"><path d=" M 234.822 208.462 C 234.566 208.462 234.31 208.364 234.115 208.169 L 230.133 204.187 C 229.742 203.796 229.742 203.164 230.133 202.773 C 230.524 202.382 231.156 202.382 231.547 202.773 L 235.529 206.755 C 235.92 207.146 235.92 207.778 235.529 208.169 C 235.334 208.365 235.078 208.462 234.822 208.462 Z " fill="rgb(0,114,205)"/></g><g id="Group"><path d=" M 230.84 208.462 C 230.584 208.462 230.328 208.364 230.133 208.169 C 229.742 207.778 229.742 207.146 230.133 206.755 L 234.115 202.773 C 234.506 202.382 235.138 202.382 235.529 202.773 C 235.92 203.164 235.92 203.796 235.529 204.187 L 231.547 208.169 C 231.352 208.365 231.096 208.462 230.84 208.462 Z " fill="rgb(0,114,205)"/></g></g><g id="Group"><g id="Group"><path d=" M 304.13 187.311 C 303.874 187.311 303.618 187.213 303.423 187.018 L 299.441 183.036 C 299.05 182.645 299.05 182.013 299.441 181.622 C 299.832 181.231 300.464 181.231 300.855 181.622 L 304.837 185.604 C 305.228 185.995 305.228 186.627 304.837 187.018 C 304.642 187.213 304.386 187.311 304.13 187.311 Z " fill="rgb(0,114,205)"/></g><g id="Group"><path d=" M 300.147 187.311 C 299.891 187.311 299.635 187.213 299.44 187.018 C 299.049 186.627 299.049 185.995 299.44 185.604 L 303.422 181.622 C 303.813 181.231 304.445 181.231 304.836 181.622 C 305.227 182.013 305.227 182.645 304.836 183.036 L 300.854 187.018 C 300.659 187.213 300.403 187.311 300.147 187.311 Z " fill="rgb(0,114,205)"/></g></g><g id="Group"><g id="Group"><path d=" M 271.6 125.993 C 271.344 125.993 271.088 125.895 270.893 125.7 L 266.91 121.718 C 266.519 121.328 266.519 120.695 266.91 120.304 C 267.301 119.913 267.933 119.913 268.324 120.304 L 272.307 124.286 C 272.698 124.676 272.698 125.309 272.307 125.7 C 272.111 125.895 271.855 125.993 271.6 125.993 Z " fill="rgb(0,114,205)"/></g><g id="Group"><path d=" M 267.617 125.993 C 267.361 125.993 267.105 125.895 266.91 125.7 C 266.519 125.309 266.519 124.676 266.91 124.286 L 270.893 120.304 C 271.284 119.913 271.916 119.913 272.307 120.304 C 272.698 120.695 272.698 121.328 272.307 121.718 L 268.324 125.7 C 268.128 125.895 267.873 125.993 267.617 125.993 Z " fill="rgb(0,114,205)"/></g></g><g id="Group"><g id="Group"><path d=" M 244.08 66.1 C 243.824 66.1 243.568 66.002 243.373 65.807 L 239.39 61.825 C 238.999 61.435 238.999 60.802 239.39 60.411 C 239.781 60.02 240.413 60.02 240.804 60.411 L 244.787 64.393 C 245.178 64.783 245.178 65.416 244.787 65.807 C 244.591 66.002 244.335 66.1 244.08 66.1 Z " fill="rgb(0,114,205)"/></g><g id="Group"><path d=" M 240.097 66.1 C 239.841 66.1 239.585 66.002 239.39 65.807 C 238.999 65.416 238.999 64.783 239.39 64.393 L 243.373 60.411 C 243.764 60.02 244.396 60.02 244.787 60.411 C 245.178 60.802 245.178 61.435 244.787 61.825 L 240.804 65.807 C 240.608 66.002 240.353 66.1 240.097 66.1 Z " fill="rgb(0,114,205)"/></g></g><g id="Group"><g id="Group"><path d=" M 143.02 213.006 C 142.764 213.006 142.508 212.908 142.313 212.713 L 138.331 208.731 C 137.94 208.34 137.94 207.708 138.331 207.317 C 138.722 206.926 139.354 206.926 139.745 207.317 L 143.727 211.299 C 144.118 211.69 144.118 212.322 143.727 212.713 C 143.531 212.909 143.275 213.006 143.02 213.006 Z " fill="rgb(0,114,205)"/></g><g id="Group"><path d=" M 139.037 213.006 C 138.781 213.006 138.525 212.908 138.33 212.713 C 137.939 212.322 137.939 211.69 138.33 211.299 L 142.312 207.317 C 142.703 206.926 143.335 206.926 143.726 207.317 C 144.117 207.708 144.117 208.34 143.726 208.731 L 139.744 212.713 C 139.549 212.909 139.293 213.006 139.037 213.006 Z " fill="rgb(0,114,205)"/></g></g><g id="Group"><g id="Group"><path d=" M 45.545 190.031 C 45.289 190.031 45.033 189.933 44.838 189.738 L 40.855 185.756 C 40.464 185.366 40.464 184.733 40.855 184.342 C 41.246 183.951 41.878 183.951 42.269 184.342 L 46.252 188.324 C 46.643 188.714 46.643 189.347 46.252 189.738 C 46.057 189.933 45.801 190.031 45.545 190.031 Z " fill="rgb(0,114,205)"/></g><g id="Group"><path d=" M 41.562 190.031 C 41.306 190.031 41.05 189.933 40.855 189.738 C 40.464 189.347 40.464 188.714 40.855 188.324 L 44.838 184.342 C 45.229 183.951 45.861 183.951 46.252 184.342 C 46.643 184.733 46.643 185.366 46.252 185.756 L 42.269 189.738 C 42.074 189.933 41.818 190.031 41.562 190.031 Z " fill="rgb(0,114,205)"/></g></g><g id="Group"><g id="Group"><path d=" M 111.286 77.999 C 111.03 77.999 110.774 77.901 110.579 77.706 L 106.596 73.724 C 106.205 73.334 106.205 72.701 106.596 72.31 C 106.987 71.919 107.619 71.919 108.01 72.31 L 111.993 76.292 C 112.384 76.682 112.384 77.315 111.993 77.706 C 111.797 77.901 111.542 77.999 111.286 77.999 Z " fill="rgb(0,114,205)"/></g><g id="Group"><path d=" M 107.303 77.999 C 107.047 77.999 106.791 77.901 106.596 77.706 C 106.205 77.315 106.205 76.682 106.596 76.292 L 110.579 72.31 C 110.97 71.919 111.602 71.919 111.993 72.31 C 112.384 72.701 112.384 73.334 111.993 73.724 L 108.01 77.706 C 107.814 77.901 107.559 77.999 107.303 77.999 Z " fill="rgb(0,114,205)"/></g></g><g id="Group"><g id="Group"><g id="Group"><g id="Group"><g id="Group"><path d=" M 189.169 211.933 C 189.169 205.539 189.169 196.268 189.169 196.268 L 176.708 196.268 L 164.246 196.268 C 164.246 196.268 164.246 205.539 164.246 211.933 C 164.246 218.328 147.299 223.502 147.299 223.502 L 176.708 223.502 L 206.116 223.502 C 206.116 223.502 189.169 218.328 189.169 211.933 Z " fill="rgb(255,255,255)"/></g></g></g></g><g id="Group"><g id="Group"><g id="Group"><g id="Group"><path d=" M 189.169 208.243 C 189.169 203.245 189.169 196.268 189.169 196.268 L 164.245 196.268 C 164.245 196.268 164.245 203.245 164.245 208.243 L 189.169 208.243 Z " fill="rgb(235,243,254)"/></g></g></g></g><g id="Group"><g id="Group"><g id="Group"><g id="Group"><path d=" M 206.116 224.502 L 147.299 224.502 C 146.804 224.502 146.383 224.14 146.31 223.65 C 146.237 223.16 146.533 222.691 147.007 222.546 C 153.285 220.627 163.246 216.049 163.246 211.933 L 163.246 196.268 C 163.246 195.716 163.694 195.268 164.246 195.268 L 189.17 195.268 C 189.722 195.268 190.17 195.716 190.17 196.268 L 190.17 211.933 C 190.17 216.049 200.13 220.627 206.409 222.546 C 206.883 222.691 207.179 223.161 207.106 223.65 C 207.033 224.139 206.611 224.502 206.116 224.502 Z  M 152.982 222.502 L 200.432 222.502 C 195.202 220.331 188.169 216.552 188.169 211.933 L 188.169 197.268 L 165.245 197.268 L 165.245 211.933 C 165.245 216.553 158.212 220.332 152.982 222.502 Z " fill="rgb(0,114,205)"/></g></g></g></g><g id="Group"><g id="Group"><g id="Group"><g id="Group"><path d=" M 254.805 83.882 L 98.609 83.882 C 95.901 83.882 93.706 86.129 93.706 88.901 L 93.706 188.019 L 259.708 188.019 L 259.708 88.901 C 259.709 86.129 257.513 83.882 254.805 83.882 Z " fill="rgb(84,170,227)"/></g></g></g></g><g id="Group"><g id="Group"><g id="Group"><g id="Group"><path d=" M 259.709 189.019 L 93.706 189.019 C 93.154 189.019 92.706 188.571 92.706 188.019 L 92.706 88.901 C 92.706 85.582 95.354 82.882 98.609 82.882 L 254.805 82.882 C 258.06 82.882 260.708 85.582 260.708 88.901 L 260.708 188.019 C 260.709 188.571 260.261 189.019 259.709 189.019 Z  M 94.706 187.019 L 258.708 187.019 L 258.708 88.901 C 258.708 86.685 256.957 84.882 254.805 84.882 L 98.609 84.882 C 96.457 84.882 94.706 86.685 94.706 88.901 L 94.706 187.019 L 94.706 187.019 Z " fill="rgb(0,114,205)"/></g></g></g></g><g id="Group"><g id="Group"><g id="Group"><g id="Group"><rect x="101.676" y="91.26" width="150.263" height="89.321" transform="matrix(1,0,0,1,0,0)" fill="rgb(255,255,255)"/></g></g></g></g><g id="Group"><g id="Group"><g id="Group"><g id="Group"><g id="Group"><rect x="101.654" y="91.26" width="73.084" height="27.65" transform="matrix(1,0,0,1,0,0)" fill="rgb(146,208,239)"/></g></g></g></g><g id="Group"><g id="Group"><g id="Group"><g id="Group"><rect x="227.139" y="91.26" width="24.832" height="27.65" transform="matrix(1,0,0,1,0,0)" fill="rgb(146,208,239)"/></g></g></g></g><g id="Group"><g id="Group"><g id="Group"><g id="Group"><rect x="188.712" y="91.26" width="29.579" height="27.65" transform="matrix(1,0,0,1,0,0)" fill="rgb(146,208,239)"/></g></g></g></g></g><g id="Group"><g id="Group"><g id="Group"><g id="Group"><rect x="101.676" y="171.232" width="150.295" height="9.399" transform="matrix(1,0,0,1,0,0)" fill="rgb(235,243,254)"/></g></g></g></g><g id="Group"><g id="Group"><g id="Group"><g id="Group"><path d=" M 93.706 187.04 L 93.706 193.474 C 93.706 196.245 95.901 198.493 98.609 198.493 L 254.805 198.493 C 257.513 198.493 259.708 196.246 259.708 193.474 L 259.708 187.04 L 93.706 187.04 Z " fill="rgb(255,255,255)"/></g></g></g></g><g id="Group"><g id="Group"><g id="Group"><g id="Group"><path d=" M 254.805 199.492 L 98.609 199.492 C 95.354 199.492 92.706 196.792 92.706 193.473 L 92.706 187.039 C 92.706 186.487 93.154 186.039 93.706 186.039 L 259.708 186.039 C 260.26 186.039 260.708 186.487 260.708 187.039 L 260.708 193.473 C 260.709 196.792 258.06 199.492 254.805 199.492 Z  M 94.706 188.04 L 94.706 193.474 C 94.706 195.69 96.457 197.493 98.609 197.493 L 254.805 197.493 C 256.957 197.493 258.708 195.69 258.708 193.474 L 258.708 188.04 L 94.706 188.04 Z " fill="rgb(0,114,205)"/></g></g></g></g><g id="Group"><g id="Group"><g id="Group"><g id="Group"><rect x="101.676" y="91.26" width="150.295" height="8.153" transform="matrix(1,0,0,1,0,0)" fill="rgb(146,208,239)"/></g></g></g></g><g id="Group"><g id="Group"><g id="Group"><g id="Group"><path d=" M 251.939 181.582 L 101.676 181.582 C 101.124 181.582 100.676 181.134 100.676 180.582 L 100.676 91.261 C 100.676 90.709 101.124 90.261 101.676 90.261 L 251.939 90.261 C 252.491 90.261 252.939 90.709 252.939 91.261 L 252.939 180.582 C 252.939 181.134 252.491 181.582 251.939 181.582 Z  M 102.676 179.582 L 250.939 179.582 L 250.939 92.261 L 102.676 92.261 L 102.676 179.582 Z " fill="rgb(0,114,205)"/></g></g></g></g><g id="Group"><g id="Group"><g id="Group"><rect x="115.731" y="167.64" width="122.152" height="12.941" transform="matrix(1,0,0,1,0,0)" fill="rgb(214,234,250)"/></g></g><g id="Group"><g id="Group"><path d=" M 237.883 181.582 L 115.731 181.582 C 115.179 181.582 114.731 181.134 114.731 180.582 L 114.731 167.641 C 114.731 167.089 115.179 166.641 115.731 166.641 L 237.883 166.641 C 238.435 166.641 238.883 167.089 238.883 167.641 L 238.883 180.582 C 238.883 181.134 238.436 181.582 237.883 181.582 Z  M 116.731 179.582 L 236.883 179.582 L 236.883 168.641 L 116.731 168.641 L 116.731 179.582 Z " fill="rgb(0,114,205)"/></g></g><g id="Group"><g id="Group"><rect x="118.675" y="167.16" width="2" height="7.855" transform="matrix(1,0,0,1,0,0)" fill="rgb(0,114,205)"/></g><g id="Group"><rect x="123.165" y="167.16" width="2" height="4.489" transform="matrix(1,0,0,1,0,0)" fill="rgb(0,114,205)"/></g><g id="Group"><rect x="126.531" y="167.16" width="2" height="7.855" transform="matrix(1,0,0,1,0,0)" fill="rgb(0,114,205)"/></g><g id="Group"><rect x="131.021" y="167.16" width="2" height="4.489" transform="matrix(1,0,0,1,0,0)" fill="rgb(0,114,205)"/></g><g id="Group"><rect x="135.509" y="167.16" width="2" height="7.855" transform="matrix(1,0,0,1,0,0)" fill="rgb(0,114,205)"/></g><g id="Group"><rect x="138.876" y="167.16" width="2" height="4.489" transform="matrix(1,0,0,1,0,0)" fill="rgb(0,114,205)"/></g><g id="Group"><rect x="143.365" y="167.16" width="2" height="7.855" transform="matrix(1,0,0,1,0,0)" fill="rgb(0,114,205)"/></g><g id="Group"><rect x="147.855" y="167.16" width="2" height="4.489" transform="matrix(1,0,0,1,0,0)" fill="rgb(0,114,205)"/></g><g id="Group"><rect x="151.221" y="167.16" width="2" height="7.855" transform="matrix(1,0,0,1,0,0)" fill="rgb(0,114,205)"/></g><g id="Group"><rect x="155.71" y="167.16" width="2" height="4.489" transform="matrix(1,0,0,1,0,0)" fill="rgb(0,114,205)"/></g><g id="Group"><rect x="159.077" y="167.16" width="2" height="7.855" transform="matrix(1,0,0,1,0,0)" fill="rgb(0,114,205)"/></g><g id="Group"><rect x="163.566" y="167.16" width="2" height="4.489" transform="matrix(1,0,0,1,0,0)" fill="rgb(0,114,205)"/></g><g id="Group"><rect x="168.056" y="167.16" width="2" height="7.855" transform="matrix(1,0,0,1,0,0)" fill="rgb(0,114,205)"/></g><g id="Group"><rect x="171.422" y="167.16" width="2" height="4.489" transform="matrix(1,0,0,1,0,0)" fill="rgb(0,114,205)"/></g><g id="Group"><rect x="175.912" y="167.16" width="2" height="7.855" transform="matrix(1,0,0,1,0,0)" fill="rgb(0,114,205)"/></g><g id="Group"><rect x="180.4" y="167.16" width="2" height="4.489" transform="matrix(1,0,0,1,0,0)" fill="rgb(0,114,205)"/></g><g id="Group"><rect x="183.768" y="167.16" width="2" height="7.855" transform="matrix(1,0,0,1,0,0)" fill="rgb(0,114,205)"/></g><g id="Group"><rect x="188.256" y="167.16" width="2" height="4.489" transform="matrix(1,0,0,1,0,0)" fill="rgb(0,114,205)"/></g><g id="Group"><rect x="192.746" y="167.16" width="2" height="7.855" transform="matrix(1,0,0,1,0,0)" fill="rgb(0,114,205)"/></g><g id="Group"><rect x="196.112" y="167.16" width="2" height="4.489" transform="matrix(1,0,0,1,0,0)" fill="rgb(0,114,205)"/></g><g id="Group"><rect x="200.602" y="167.16" width="2" height="7.855" transform="matrix(1,0,0,1,0,0)" fill="rgb(0,114,205)"/></g><g id="Group"><rect x="203.968" y="167.16" width="2" height="4.489" transform="matrix(1,0,0,1,0,0)" fill="rgb(0,114,205)"/></g><g id="Group"><rect x="208.458" y="167.16" width="2" height="7.855" transform="matrix(1,0,0,1,0,0)" fill="rgb(0,114,205)"/></g><g id="Group"><rect x="212.946" y="167.16" width="2" height="4.489" transform="matrix(1,0,0,1,0,0)" fill="rgb(0,114,205)"/></g><g id="Group"><rect x="216.313" y="167.16" width="2" height="7.855" transform="matrix(1,0,0,1,0,0)" fill="rgb(0,114,205)"/></g><g id="Group"><rect x="220.803" y="167.16" width="2" height="4.489" transform="matrix(1,0,0,1,0,0)" fill="rgb(0,114,205)"/></g><g id="Group"><rect x="225.292" y="167.16" width="2" height="7.855" transform="matrix(1,0,0,1,0,0)" fill="rgb(0,114,205)"/></g><g id="Group"><rect x="228.658" y="167.16" width="2" height="4.489" transform="matrix(1,0,0,1,0,0)" fill="rgb(0,114,205)"/></g><g id="Group"><rect x="233.147" y="167.16" width="2" height="7.855" transform="matrix(1,0,0,1,0,0)" fill="rgb(0,114,205)"/></g></g></g><g id="Group"><rect x="116.028" y="129.493" width="24" height="2" transform="matrix(1,0,0,1,0,0)" fill="rgb(0,114,205)"/></g><g id="Group"><rect x="160.028" y="129.493" width="30" height="2" transform="matrix(1,0,0,1,0,0)" fill="rgb(0,114,205)"/></g><g id="Group"><rect x="143.028" y="129.493" width="14" height="2" transform="matrix(1,0,0,1,0,0)" fill="rgb(0,114,205)"/></g><g id="Group"><rect x="116.028" y="144.493" width="18" height="2" transform="matrix(1,0,0,1,0,0)" fill="rgb(0,114,205)"/></g><g id="Group"><rect x="148.028" y="144.493" width="22" height="2" transform="matrix(1,0,0,1,0,0)" fill="rgb(0,114,205)"/></g><g id="Group"><rect x="136.028" y="144.493" width="10" height="2" transform="matrix(1,0,0,1,0,0)" fill="rgb(0,114,205)"/></g><g id="Group"><rect x="116.028" y="134.493" width="36" height="2" transform="matrix(1,0,0,1,0,0)" fill="rgb(0,114,205)"/></g><g id="Group"><rect x="182.028" y="134.493" width="44" height="2" transform="matrix(1,0,0,1,0,0)" fill="rgb(0,114,205)"/></g><g id="Group"><rect x="156.028" y="134.493" width="21" height="2" transform="matrix(1,0,0,1,0,0)" fill="rgb(0,114,205)"/></g><g id="Group"><rect x="190.028" y="139.493" width="36" height="2" transform="matrix(1,0,0,1,0,0)" fill="rgb(0,114,205)"/></g><g id="Group"><rect x="116.028" y="139.493" width="44" height="2" transform="matrix(1,0,0,1,0,0)" fill="rgb(0,114,205)"/></g><g id="Group"><rect x="165.028" y="139.493" width="21" height="2" transform="matrix(1,0,0,1,0,0)" fill="rgb(0,114,205)"/></g></g><g id="Group"><path d=" M 334.028 160.493 L 330.09 160.493 C 328.108 160.493 327.285 158.36 326.559 156.477 C 326.114 155.323 325.504 153.742 324.894 153.742 C 324.273 153.742 323.692 155.178 323.225 156.332 C 322.497 158.131 321.671 160.171 319.703 160.171 C 317.736 160.171 316.906 158.148 316.173 156.363 C 315.704 155.219 315.12 153.796 314.494 153.796 C 313.878 153.796 313.26 155.365 312.808 156.511 C 312.073 158.378 311.239 160.493 309.262 160.493 L 304.028 160.493 C 303.476 160.493 303.028 160.045 303.028 159.493 C 303.028 158.941 303.476 158.493 304.028 158.493 L 309.262 158.493 C 309.877 158.493 310.496 156.924 310.948 155.778 C 311.683 153.911 312.517 151.796 314.494 151.796 C 316.461 151.796 317.291 153.819 318.023 155.604 C 318.492 156.748 319.077 158.171 319.703 158.171 C 320.324 158.171 320.905 156.735 321.372 155.582 C 322.1 153.782 322.926 151.743 324.895 151.743 C 326.877 151.743 327.7 153.877 328.426 155.759 C 328.871 156.913 329.481 158.494 330.091 158.494 L 334.029 158.494 C 334.581 158.494 335.029 158.942 335.029 159.494 C 335.029 160.046 334.581 160.493 334.028 160.493 Z " fill="rgb(0,114,205)"/></g><g id="Group"><path d=" M 62.028 100.493 L 58.09 100.493 C 56.108 100.493 55.285 98.36 54.559 96.477 C 54.114 95.323 53.504 93.742 52.894 93.742 C 52.273 93.742 51.692 95.178 51.225 96.332 C 50.497 98.131 49.671 100.171 47.703 100.171 C 45.736 100.171 44.906 98.148 44.173 96.363 C 43.704 95.219 43.12 93.796 42.494 93.796 C 41.878 93.796 41.26 95.365 40.808 96.511 C 40.073 98.378 39.239 100.493 37.262 100.493 L 32.028 100.493 C 31.476 100.493 31.028 100.045 31.028 99.493 C 31.028 98.941 31.476 98.493 32.028 98.493 L 37.262 98.493 C 37.877 98.493 38.496 96.924 38.948 95.778 C 39.683 93.911 40.517 91.796 42.494 91.796 C 44.461 91.796 45.291 93.819 46.023 95.604 C 46.492 96.748 47.077 98.171 47.703 98.171 C 48.324 98.171 48.905 96.735 49.372 95.582 C 50.1 93.782 50.926 91.743 52.895 91.743 C 54.877 91.743 55.7 93.877 56.426 95.759 C 56.871 96.913 57.481 98.494 58.091 98.494 L 62.029 98.494 C 62.581 98.494 63.029 98.942 63.029 99.494 C 63.029 100.046 62.581 100.493 62.028 100.493 Z " fill="rgb(0,114,205)"/></g><g id="Group"><path d=" M 171.028 61.493 L 167.09 61.493 C 165.108 61.493 164.285 59.36 163.559 57.477 C 163.114 56.323 162.504 54.742 161.894 54.742 C 161.273 54.742 160.692 56.178 160.225 57.332 C 159.497 59.131 158.671 61.171 156.703 61.171 C 154.736 61.171 153.906 59.148 153.173 57.363 C 152.704 56.219 152.12 54.796 151.494 54.796 C 150.878 54.796 150.26 56.365 149.808 57.511 C 149.073 59.378 148.239 61.493 146.262 61.493 L 141.028 61.493 C 140.476 61.493 140.028 61.045 140.028 60.493 C 140.028 59.941 140.476 59.493 141.028 59.493 L 146.262 59.493 C 146.877 59.493 147.496 57.924 147.948 56.778 C 148.683 54.911 149.517 52.796 151.494 52.796 C 153.461 52.796 154.291 54.819 155.023 56.604 C 155.492 57.748 156.077 59.171 156.703 59.171 C 157.324 59.171 157.905 57.735 158.372 56.582 C 159.1 54.782 159.926 52.743 161.895 52.743 C 163.877 52.743 164.7 54.877 165.426 56.759 C 165.871 57.913 166.481 59.494 167.091 59.494 L 171.029 59.494 C 171.581 59.494 172.029 59.942 172.029 60.494 C 172.029 61.046 171.581 61.493 171.028 61.493 Z " fill="rgb(0,114,205)"/></g><g id="Group"/><g id="Group"><g id="Group"><path d=" M 213.496 154.297 C 213.35 153.127 212.283 152.018 211.124 151.809 L 206.559 151.019 C 205.387 150.809 204.142 149.737 203.76 148.603 L 201.921 144.081 C 201.415 143.025 201.54 141.373 202.25 140.419 L 204.965 136.642 C 205.648 135.689 205.633 134.127 204.918 133.205 L 202.461 130.291 C 201.648 129.437 200.136 129.148 199.068 129.671 L 194.892 131.722 C 193.825 132.228 192.2 132.076 191.273 131.367 C 191.273 131.367 190.562 130.816 189.228 129.986 C 187.908 129.173 187.096 128.78 187.096 128.78 C 186.056 128.245 185.189 126.868 185.179 125.69 L 185.164 121.021 C 185.14 119.857 184.214 118.601 183.086 118.269 L 179.4 117.365 C 178.254 117.142 176.855 117.803 176.294 118.844 L 175.588 120.182 L 174.737 121.803 L 174.132 122.95 C 173.57 123.989 172.152 124.855 170.974 124.867 L 169.177 124.982 L 168.367 125.043 L 166.104 125.217 C 164.921 125.379 163.406 124.735 162.705 123.772 L 159.969 120.043 C 159.268 119.082 157.787 118.618 156.683 119.014 L 153.154 120.442 C 152.072 120.948 151.338 122.31 151.5 123.465 L 152.159 128.069 C 152.32 129.252 151.679 130.766 150.715 131.454 L 146.976 134.628 C 146.133 135.442 144.536 135.812 143.409 135.453 L 138.983 134.034 C 137.856 133.679 136.379 134.159 135.68 135.111 C 135.68 135.111 135.341 135.57 134.64 136.715 C 133.923 137.887 133.664 138.36 133.664 138.36 C 133.118 139.4 133.335 140.953 134.15 141.782 L 137.388 145.126 C 138.202 145.97 138.584 147.595 138.241 148.707 L 137.046 153.483 C 136.838 154.629 135.766 155.873 134.647 156.254 L 130.241 157.713 C 129.122 158.082 128.24 159.346 128.264 160.509 L 128.535 164.336 C 128.681 165.503 129.747 166.612 130.905 166.821 L 135.473 167.611 C 136.643 167.821 137.889 168.895 138.27 170.026 L 140.11 174.551 C 140.63 175.608 140.489 177.26 139.808 178.214 L 137.079 182.004 C 136.384 182.943 136.41 184.506 137.141 185.429 L 139.57 188.342 C 140.383 189.197 141.894 189.484 142.963 188.962 L 147.138 186.908 C 148.193 186.388 149.818 186.555 150.758 187.263 C 150.758 187.263 151.496 187.818 152.803 188.646 C 154.122 189.46 154.947 189.878 154.947 189.878 C 155.989 190.385 156.856 191.764 156.866 192.955 L 156.881 197.61 C 156.891 198.774 157.818 200.031 158.944 200.362 L 162.631 201.266 C 163.776 201.49 165.176 200.826 165.737 199.788 L 167.912 195.682 C 168.46 194.642 169.879 193.788 171.058 193.765 L 175.928 193.414 C 177.11 193.253 178.627 193.896 179.326 194.857 L 182.062 198.586 C 182.762 199.549 184.242 200.014 185.349 199.617 L 188.891 198.163 C 189.958 197.684 190.692 196.322 190.532 195.152 L 189.871 190.562 C 189.712 189.38 190.354 187.863 191.316 187.177 L 195.056 184.001 C 195.911 183.188 197.524 182.808 198.637 183.18 L 203.064 184.582 C 204.177 184.953 205.655 184.457 206.351 183.517 C 206.351 183.517 206.691 183.061 207.406 181.917 C 208.135 180.745 208.367 180.257 208.367 180.257 C 208.915 179.232 208.695 177.679 207.883 176.823 L 204.656 173.506 C 203.83 172.648 203.447 171.036 203.804 169.924 L 204.984 165.16 C 205.193 164.003 206.265 162.759 207.385 162.378 L 211.805 160.919 C 212.909 160.537 213.819 159.287 213.768 158.095 L 213.496 154.297 Z  M 191.561 172.082 C 184.513 183.427 169.608 186.896 158.249 179.849 C 146.919 172.799 143.421 157.906 150.483 146.55 C 154.501 140.07 161.079 136.175 168.099 135.305 C 168.895 135.202 169.718 135.158 170.525 135.163 C 171.28 135.128 172.019 135.147 172.755 135.222 C 173.576 135.259 174.368 135.346 175.187 135.492 C 178.144 135.995 181.059 137.084 183.782 138.771 C 195.125 145.817 198.609 160.725 191.561 172.082 Z " fill="rgb(234,245,254)"/></g><g id="Group"><g id="Group"><g id="Group"><g id="Group"><g id="Group"><g id="Group"><g id="Group"><path d=" M 171.755 104.119 C 171.736 101.067 172.897 98.284 174.807 96.199 L 175.79 96.199 C 175.015 97.559 174.644 99.152 174.574 100.707 C 174.475 102.906 175.629 105.42 177.161 106.952 C 178.763 108.554 181.141 109.538 183.406 109.538 C 185.799 109.538 187.923 108.538 189.65 106.952 C 191.384 105.36 192.134 102.991 192.237 100.707 C 192.304 99.214 191.793 97.576 190.979 96.199 L 191.962 96.199 C 193.842 98.251 194.995 100.979 195.014 103.979 C 195.041 108.689 192.265 112.758 188.249 114.612 L 188.418 190.193 C 192.455 191.998 195.28 196.034 195.309 200.743 C 195.327 203.611 194.303 206.243 192.595 208.28 L 191.46 208.28 C 192.034 207.055 192.32 205.686 192.381 204.345 C 192.48 202.145 191.326 199.631 189.794 198.1 C 188.192 196.498 185.814 195.513 183.549 195.513 C 181.156 195.513 179.032 196.514 177.305 198.1 C 175.571 199.692 174.82 202.061 174.718 204.345 C 174.66 205.637 175.036 207.035 175.665 208.28 L 174.766 208.28 C 173.086 206.278 172.067 203.702 172.05 200.883 C 172.022 196.173 174.798 192.104 178.813 190.251 L 178.646 114.669 C 174.608 112.865 171.783 108.829 171.755 104.119 Z " fill-rule="evenodd" fill="rgb(255,255,255)"/></g></g></g></g></g><g id="Group"><g id="Group"><g id="Group"><g id="Group"><g id="Group"><path d=" M 192.595 209.28 L 191.46 209.28 C 191.118 209.28 190.8 209.105 190.616 208.817 C 190.432 208.528 190.409 208.166 190.554 207.856 C 191.036 206.826 191.323 205.597 191.381 204.301 C 191.462 202.498 190.519 200.239 189.086 198.808 C 187.671 197.392 185.549 196.514 183.548 196.514 C 181.562 196.514 179.636 197.318 177.98 198.838 C 176.151 200.517 175.777 203.038 175.716 204.391 C 175.671 205.397 175.943 206.558 176.482 207.677 C 176.609 207.844 176.684 208.054 176.684 208.281 C 176.684 208.833 176.237 209.281 175.684 209.281 C 175.679 209.281 175.671 209.28 175.664 209.281 L 174.765 209.281 C 174.469 209.281 174.189 209.15 173.999 208.924 C 172.113 206.677 171.066 203.824 171.049 200.89 C 171.021 196.166 173.654 191.816 177.811 189.632 L 177.646 115.301 C 173.467 113.167 170.783 108.85 170.754 104.127 C 170.734 100.935 171.911 97.88 174.068 95.526 C 174.257 95.319 174.525 95.201 174.805 95.201 L 175.788 95.201 C 176.144 95.201 176.474 95.39 176.652 95.699 C 176.832 96.007 176.833 96.387 176.657 96.697 C 176.014 97.823 175.639 99.226 175.571 100.754 C 175.49 102.557 176.434 104.816 177.866 106.248 C 179.28 107.663 181.402 108.541 183.404 108.541 C 185.391 108.541 187.317 107.738 188.971 106.218 C 190.8 104.54 191.175 102.018 191.236 100.665 C 191.291 99.449 190.882 98.008 190.116 96.711 C 189.933 96.402 189.93 96.019 190.109 95.707 C 190.287 95.395 190.618 95.203 190.977 95.203 L 191.96 95.203 C 192.24 95.203 192.508 95.321 192.697 95.527 C 194.815 97.839 195.992 100.84 196.011 103.977 C 196.038 108.702 193.404 113.052 189.247 115.237 L 189.413 189.567 C 193.592 191.702 196.276 196.019 196.305 200.741 C 196.324 203.731 195.277 206.637 193.358 208.927 C 193.171 209.149 192.891 209.28 192.595 209.28 Z  M 183.549 194.513 C 186.061 194.513 188.725 195.617 190.501 197.393 C 192.328 199.219 193.485 202.031 193.38 204.39 C 193.365 204.705 193.34 205.017 193.303 205.326 C 193.97 203.904 194.319 202.34 194.309 200.749 C 194.284 196.59 191.812 192.805 188.01 191.106 C 187.651 190.945 187.419 190.589 187.418 190.195 L 187.25 114.614 C 187.249 114.223 187.476 113.867 187.831 113.704 C 191.611 111.959 194.039 108.144 194.015 103.985 C 194.006 102.62 193.738 101.285 193.233 100.045 C 193.246 100.284 193.248 100.52 193.237 100.752 C 193.108 103.622 192.075 106.085 190.327 107.689 C 188.297 109.553 185.904 110.538 183.407 110.538 C 180.894 110.538 178.23 109.435 176.455 107.659 C 174.627 105.831 173.471 103.019 173.576 100.662 C 173.589 100.368 173.612 100.077 173.644 99.789 C 173.053 101.139 172.747 102.607 172.755 104.113 C 172.78 108.272 175.252 112.057 179.054 113.756 C 179.413 113.917 179.645 114.273 179.646 114.667 L 179.813 190.25 C 179.814 190.641 179.586 190.996 179.232 191.16 C 175.452 192.904 173.025 196.719 173.05 200.878 C 173.057 202.124 173.285 203.352 173.713 204.506 C 173.714 204.437 173.716 204.369 173.719 204.302 C 173.847 201.433 174.88 198.969 176.629 197.364 C 178.659 195.499 181.053 194.513 183.549 194.513 Z " fill="rgb(0,114,205)"/></g></g></g></g></g><g id="Group"><path d=" M 183.531 172.033 C 182.978 172.033 182.531 171.585 182.531 171.033 L 182.531 135.634 C 182.531 135.082 182.978 134.634 183.531 134.634 C 184.084 134.634 184.531 135.082 184.531 135.634 L 184.531 171.033 C 184.531 171.585 184.084 172.033 183.531 172.033 Z " fill="rgb(0,114,205)"/></g></g><g id="Group"><g id="XMLID_1545_"><g id="XMLID_1548_"><g id="Group"><g id="Group"><g id="Group"><path d=" M 166.582 99.617 C 166.372 99.085 159.971 89.042 159.971 89.042 C 159.971 89.042 153.845 98.786 153.445 99.617 L 166.582 99.617 Z " fill-rule="evenodd" fill="rgb(255,255,255)"/></g></g></g></g><g id="XMLID_1547_"><g id="Group"><g id="Group"><g id="Group"><path d=" M 166.582 100.617 L 153.444 100.617 C 153.1 100.617 152.78 100.44 152.597 100.149 C 152.414 99.858 152.394 99.493 152.542 99.183 C 152.955 98.326 158.493 89.512 159.123 88.51 C 159.306 88.22 159.624 88.043 159.967 88.042 C 159.968 88.042 159.969 88.042 159.97 88.042 C 160.312 88.042 160.629 88.216 160.814 88.504 C 163.223 92.285 167.298 98.709 167.512 99.25 C 167.633 99.558 167.594 99.906 167.408 100.18 C 167.223 100.453 166.913 100.617 166.582 100.617 Z  M 155.192 98.617 L 164.827 98.617 C 163.696 96.784 161.651 93.548 159.976 90.913 C 158.327 93.544 156.314 96.774 155.192 98.617 Z " fill="rgb(0,114,205)"/></g></g></g></g><g id="XMLID_1546_"><g id="Group"><g id="Group"><g id="Group"><path d=" M 156.837 94.128 L 163.136 94.109 L 159.971 89.041 L 156.837 94.128 Z " fill-rule="evenodd" fill="rgb(0,114,205)"/></g></g></g></g></g><g id="XMLID_1544_"><g id="Group"><g id="Group"><g id="Group"><path d=" M 166.442 99.992 L 153.405 100.032 L 153.435 200.642 L 166.442 200.642 L 166.442 99.992 Z " fill-rule="evenodd" fill="rgb(146,208,239)"/></g></g></g></g><g id="XMLID_1543_"><g id="Group"><g id="Group"><g id="Group"><path d=" M 166.442 201.642 L 153.434 201.642 C 152.882 201.642 152.434 201.194 152.434 200.642 L 152.405 100.032 C 152.405 99.481 152.85 99.033 153.402 99.032 L 166.439 98.992 C 166.44 98.992 166.441 98.992 166.442 98.992 C 166.707 98.992 166.961 99.097 167.148 99.284 C 167.336 99.472 167.442 99.726 167.442 99.992 L 167.442 200.642 C 167.442 201.194 166.995 201.642 166.442 201.642 Z  M 154.435 199.642 L 165.443 199.642 L 165.443 100.995 L 154.406 101.029 L 154.435 199.642 Z " fill="rgb(0,114,205)"/></g></g></g></g><g id="XMLID_1539_"><g id="Group"><g id="Group"><g id="Group"><path d=" M 162.163 99.992 L 157.686 100.032 L 157.695 200.642 L 162.163 200.642 L 162.163 99.992 Z " fill-rule="evenodd" fill="rgb(146,208,239)"/></g></g></g></g><g id="XMLID_1538_"><g id="Group"><g id="Group"><g id="Group"><path d=" M 162.163 201.642 L 157.695 201.642 C 157.142 201.642 156.695 201.194 156.695 200.642 L 156.685 100.032 C 156.685 99.483 157.127 99.037 157.676 99.032 L 162.154 98.992 C 162.418 98.984 162.677 99.094 162.867 99.282 C 163.057 99.47 163.163 99.726 163.163 99.992 L 163.163 200.642 C 163.163 201.194 162.716 201.642 162.163 201.642 Z  M 158.695 199.642 L 161.163 199.642 L 161.163 101 L 158.685 101.022 L 158.695 199.642 Z " fill="rgb(0,114,205)"/></g></g></g></g><g id="Group"><g id="Group"><g id="Group"><path d=" M 153.389 200.642 L 153.389 205.688 C 153.389 207.114 154.555 208.28 155.981 208.28 L 163.993 208.28 C 165.419 208.28 166.585 207.114 166.585 205.688 L 166.585 200.642 L 153.389 200.642 Z " fill-rule="evenodd" fill="rgb(84,170,227)"/></g></g></g><g id="Group"><g id="Group"><g id="Group"><path d=" M 163.992 209.28 L 155.98 209.28 C 154 209.28 152.388 207.669 152.388 205.688 L 152.388 200.642 C 152.388 200.09 152.835 199.642 153.388 199.642 L 166.583 199.642 C 167.136 199.642 167.583 200.09 167.583 200.642 L 167.583 205.688 C 167.584 207.668 165.973 209.28 163.992 209.28 Z  M 154.389 201.642 L 154.389 205.688 C 154.389 206.566 155.103 207.28 155.981 207.28 L 163.993 207.28 C 164.871 207.28 165.585 206.566 165.585 205.688 L 165.585 201.642 L 154.389 201.642 Z " fill="rgb(0,114,205)"/></g></g></g></g></g><g id="Group"><path d=" M 204.654 173.507 C 204.312 173.153 204.052 172.666 203.883 172.143 L 191.519 172.143 C 184.456 183.437 169.585 186.883 158.248 179.848 C 155.009 177.832 152.413 175.174 150.519 172.143 L 139.13 172.143 L 140.109 174.549 C 140.629 175.606 140.488 177.258 139.807 178.212 L 137.078 182.002 C 136.383 182.941 136.409 184.504 137.14 185.427 L 139.569 188.34 C 140.382 189.195 141.893 189.482 142.962 188.96 L 147.137 186.906 C 148.192 186.386 149.817 186.553 150.757 187.261 C 150.757 187.261 151.495 187.816 152.802 188.644 C 154.121 189.458 154.946 189.876 154.946 189.876 C 155.988 190.383 156.855 191.762 156.865 192.953 L 156.88 197.608 C 156.89 198.772 157.817 200.029 158.943 200.36 L 162.63 201.264 C 163.775 201.488 165.175 200.824 165.736 199.786 L 167.911 195.68 C 168.459 194.64 169.878 193.786 171.057 193.763 L 175.927 193.412 C 177.109 193.251 178.626 193.894 179.325 194.855 L 182.061 198.584 C 182.761 199.547 184.241 200.012 185.348 199.615 L 188.89 198.161 C 189.957 197.682 190.691 196.32 190.531 195.15 L 189.87 190.56 C 189.711 189.378 190.353 187.861 191.315 187.175 L 195.055 183.999 C 195.91 183.186 197.523 182.806 198.636 183.177 L 203.063 184.58 C 204.176 184.951 205.654 184.455 206.35 183.516 C 206.35 183.516 206.69 183.059 207.405 181.915 C 208.134 180.743 208.366 180.255 208.366 180.255 C 208.914 179.23 208.694 177.677 207.882 176.821 L 204.654 173.507 Z " fill="rgb(234,245,254)"/></g><g id="XMLID_1549_"><g id="XMLID_1555_"><path d=" M 163.087 202.309 C 162.868 202.309 162.65 202.289 162.438 202.247 L 158.705 201.332 C 157.115 200.866 155.893 199.24 155.88 197.617 L 155.865 192.956 C 155.858 192.159 155.212 191.117 154.509 190.775 C 154.459 190.75 153.617 190.321 152.278 189.494 C 150.943 188.648 150.189 188.083 150.158 188.059 C 149.515 187.577 148.287 187.454 147.581 187.801 L 143.405 189.855 C 141.958 190.563 139.957 190.196 138.846 189.026 L 136.373 186.065 C 135.355 184.78 135.319 182.698 136.276 181.405 L 138.997 177.625 C 139.465 176.97 139.568 175.711 139.213 174.988 L 137.344 170.398 C 137.058 169.555 136.112 168.737 135.297 168.591 L 130.735 167.802 C 129.141 167.514 127.742 166.045 127.543 164.456 L 127.268 160.575 C 127.232 158.917 128.402 157.263 129.928 156.759 L 134.333 155.301 C 135.092 155.043 135.92 154.088 136.062 153.301 L 137.272 148.461 C 137.526 147.634 137.232 146.399 136.669 145.817 L 133.432 142.475 C 132.317 141.34 132.027 139.325 132.779 137.892 C 132.788 137.876 133.052 137.392 133.787 136.19 C 134.503 135.021 134.861 134.534 134.876 134.514 C 135.82 133.227 137.759 132.595 139.284 133.077 L 143.715 134.497 C 144.485 134.74 145.708 134.46 146.281 133.905 L 150.068 130.688 C 150.798 130.163 151.281 129.025 151.169 128.201 L 150.511 123.604 C 150.287 122.007 151.263 120.22 152.732 119.533 L 153.128 119.371 C 153.641 119.165 154.223 119.411 154.43 119.923 C 154.637 120.435 154.39 121.018 153.878 121.225 L 153.53 121.366 C 152.896 121.664 152.387 122.588 152.491 123.323 L 153.15 127.924 C 153.364 129.495 152.567 131.359 151.296 132.264 L 147.623 135.386 C 146.557 136.42 144.593 136.874 143.105 136.402 L 138.676 134.982 C 137.959 134.757 136.931 135.09 136.486 135.698 C 136.481 135.704 136.153 136.153 135.492 137.233 C 134.806 138.355 134.55 138.819 134.541 138.837 C 134.202 139.482 134.353 140.557 134.863 141.077 L 138.107 144.426 C 139.17 145.528 139.648 147.535 139.196 148.998 L 138.015 153.722 C 137.753 155.175 136.438 156.696 134.968 157.197 L 130.554 158.658 C 129.863 158.886 129.247 159.756 129.263 160.484 L 129.531 164.262 C 129.618 164.941 130.345 165.7 131.082 165.834 L 135.644 166.623 C 137.185 166.9 138.719 168.224 139.217 169.704 L 141.036 174.172 C 141.683 175.484 141.515 177.541 140.622 178.792 L 137.891 182.586 C 137.459 183.169 137.48 184.243 137.925 184.806 L 140.338 187.7 C 140.813 188.197 141.857 188.388 142.524 188.062 L 146.696 186.009 C 148.072 185.332 150.119 185.53 151.359 186.463 C 151.365 186.467 152.087 187.007 153.338 187.8 C 154.589 188.572 155.391 188.982 155.4 188.986 C 156.763 189.649 157.853 191.392 157.866 192.946 L 157.881 197.607 C 157.887 198.339 158.528 199.197 159.227 199.402 L 162.87 200.295 C 163.54 200.421 164.508 199.961 164.859 199.313 L 167.029 195.214 C 167.736 193.873 169.498 192.796 171.039 192.765 L 175.856 192.417 C 177.349 192.217 179.215 193.004 180.135 194.27 L 182.869 197.995 C 183.307 198.599 184.325 198.923 185.013 198.677 L 188.512 197.239 C 189.137 196.958 189.642 196.022 189.541 195.289 L 188.881 190.706 C 188.669 189.131 189.467 187.268 190.736 186.364 L 194.409 183.24 C 195.494 182.208 197.509 181.749 198.955 182.233 L 203.366 183.63 C 204.067 183.864 205.102 183.526 205.548 182.922 C 205.552 182.917 205.883 182.469 206.559 181.387 C 207.234 180.301 207.463 179.829 207.466 179.824 C 207.83 179.139 207.674 178.055 207.158 177.511 L 203.939 174.202 C 202.861 173.082 202.385 171.07 202.852 169.617 L 204.013 164.919 C 204.275 163.457 205.592 161.931 207.063 161.43 L 211.492 159.968 C 212.197 159.724 212.801 158.866 212.769 158.136 L 212.5 154.365 C 212.413 153.684 211.686 152.923 210.947 152.79 L 206.388 152.001 C 204.846 151.725 203.311 150.4 202.813 148.919 L 200.995 144.454 C 200.348 143.106 200.536 141.045 201.448 139.818 L 204.153 136.054 C 204.584 135.454 204.572 134.386 204.129 133.814 L 201.697 130.932 C 201.218 130.43 200.175 130.239 199.509 130.565 L 195.334 132.615 C 193.919 133.285 191.874 133.081 190.666 132.156 C 190.655 132.148 189.966 131.617 188.701 130.83 C 188.399 130.644 188.121 130.479 187.875 130.336 C 187.396 130.059 187.233 129.447 187.511 128.97 C 187.787 128.491 188.401 128.328 188.877 128.606 C 189.137 128.756 189.431 128.931 189.753 129.129 C 191.12 129.98 191.857 130.547 191.887 130.571 C 192.504 131.043 193.735 131.159 194.465 130.813 L 198.629 128.769 C 200.072 128.062 202.074 128.427 203.187 129.598 L 205.684 132.556 C 206.697 133.861 206.727 135.895 205.78 137.219 L 203.064 140.998 C 202.579 141.649 202.469 142.904 202.824 143.644 L 204.688 148.222 C 204.974 149.066 205.921 149.884 206.737 150.03 L 211.297 150.819 C 212.892 151.107 214.291 152.577 214.49 154.169 L 214.765 158.021 C 214.835 159.652 213.678 161.327 212.132 161.861 L 207.698 163.324 C 206.926 163.587 206.113 164.527 205.968 165.334 L 204.775 170.16 C 204.512 170.986 204.807 172.217 205.377 172.808 L 208.6 176.121 C 209.719 177.299 210 179.317 209.249 180.723 C 209.244 180.737 208.992 181.255 208.256 182.44 C 207.527 183.607 207.168 184.089 207.153 184.109 C 206.193 185.405 204.257 186.027 202.748 185.526 L 198.336 184.128 C 197.568 183.874 196.34 184.156 195.745 184.721 L 191.964 187.934 C 191.246 188.45 190.753 189.611 190.862 190.423 L 191.522 195.004 C 191.744 196.628 190.768 198.41 189.301 199.069 L 185.729 200.536 C 184.162 201.097 182.214 200.489 181.253 199.167 L 178.519 195.442 C 178.033 194.772 176.89 194.29 176.062 194.398 L 171.129 194.755 C 170.256 194.774 169.169 195.433 168.796 196.14 L 166.62 200.249 C 165.951 201.491 164.488 202.309 163.087 202.309 Z " fill="rgb(0,114,205)"/></g><g id="XMLID_1553_"><path d=" M 166.341 126.197 C 165.823 126.197 165.385 125.798 165.345 125.273 C 165.303 124.723 165.715 124.242 166.266 124.2 L 170.911 123.868 C 171.773 123.858 172.864 123.194 173.254 122.473 L 175.411 118.375 C 176.028 117.231 177.354 116.412 178.715 116.328 C 179.285 116.297 179.741 116.713 179.775 117.265 C 179.809 117.816 179.389 118.29 178.838 118.324 C 178.162 118.366 177.464 118.782 177.176 119.316 L 175.019 123.415 C 174.283 124.777 172.513 125.85 170.986 125.865 L 166.418 126.194 C 166.393 126.196 166.366 126.197 166.341 126.197 Z " fill="rgb(0,114,205)"/></g><g id="XMLID_1552_"><path d=" M 178.692 137.372 C 178.587 137.372 178.48 137.355 178.375 137.32 C 177.275 136.952 176.146 136.668 175.02 136.477 C 174.247 136.339 173.494 136.256 172.711 136.221 C 171.964 136.148 171.283 136.129 170.572 136.162 C 169.736 136.158 168.96 136.202 168.227 136.296 C 167.755 136.355 167.29 136.426 166.83 136.512 C 166.278 136.615 165.765 136.255 165.663 135.713 C 165.562 135.17 165.92 134.648 166.463 134.546 C 166.965 134.452 167.469 134.375 167.977 134.312 C 168.793 134.207 169.66 134.155 170.533 134.163 C 171.289 134.126 172.065 134.147 172.857 134.226 C 173.671 134.262 174.509 134.354 175.363 134.506 C 176.584 134.714 177.813 135.022 179.01 135.423 C 179.533 135.598 179.817 136.165 179.641 136.689 C 179.501 137.107 179.11 137.372 178.692 137.372 Z " fill="rgb(0,114,205)"/></g><g id="XMLID_1550_"><path d=" M 170.983 184.484 C 166.445 184.484 161.854 183.262 157.721 180.698 C 145.931 173.362 142.304 157.807 149.633 146.021 C 150.525 144.583 151.563 143.231 152.717 142.007 C 153.095 141.606 153.73 141.587 154.13 141.965 C 154.532 142.344 154.551 142.977 154.172 143.379 C 153.109 144.506 152.154 145.75 151.332 147.076 C 144.584 157.926 147.924 172.246 158.776 178.999 C 169.642 185.742 183.968 182.403 190.71 171.554 C 196.311 162.53 195.092 150.892 187.746 143.253 C 187.363 142.855 187.376 142.222 187.773 141.839 C 188.172 141.456 188.804 141.469 189.187 141.866 C 197.167 150.165 198.492 162.807 192.409 172.609 C 187.651 180.269 179.41 184.483 170.983 184.484 Z " fill="rgb(0,114,205)"/></g></g></g></g></g></g></svg>